<?xml version="1.0" encoding="UTF-8"?>
<svg version="1.1" xmlns="http://www.w3.org/2000/svg" width="1181" height="283">
<path d="M0 0 C0.67797321 -0.00177501 1.35594641 -0.00355002 2.05446427 -0.00537882 C4.3232157 -0.01010473 6.59190317 -0.00774924 8.86065751 -0.00541991 C10.51191295 -0.00737379 12.16316792 -0.009763 13.81442216 -0.01254788 C18.36669978 -0.0189465 22.91895975 -0.01910961 27.471241 -0.01827047 C32.41845006 -0.01844 37.3656528 -0.02434646 42.3128587 -0.02951133 C52.13183349 -0.03883968 61.95080378 -0.04275978 71.76978245 -0.0450303 C83.52852354 -0.04799178 95.28725864 -0.0566889 107.04599659 -0.06544458 C135.4696974 -0.08629272 163.89340002 -0.09676304 192.31710656 -0.10557419 C201.73166505 -0.10850885 211.14622331 -0.11187883 220.56078154 -0.1155414 C221.22510499 -0.11579969 221.88942845 -0.11605798 222.57388291 -0.1163241 C225.26161825 -0.11737035 227.94935358 -0.11841877 230.63708892 -0.11946992 C276.61513574 -0.13743529 322.59318294 -0.15281304 368.57123278 -0.16022895 C372.18238917 -0.16081292 375.79354555 -0.16141018 379.40470194 -0.16200657 C380.12103178 -0.16212469 380.83736162 -0.16224281 381.57539843 -0.16236451 C388.83267485 -0.16356187 396.08995126 -0.16477064 403.34722768 -0.16599704 C404.80231882 -0.16624227 406.25740997 -0.16648613 407.71250112 -0.16672861 C454.42879413 -0.17451566 501.14506199 -0.1968928 547.86134402 -0.22940504 C581.43009727 -0.25275937 614.99884551 -0.27430662 648.56760675 -0.28141135 C649.6037577 -0.28163188 649.6037577 -0.28163188 650.660841 -0.28185687 C665.82713736 -0.28504214 680.99343366 -0.28709272 696.15973031 -0.28808442 C702.26255881 -0.28849914 708.36538729 -0.28905403 714.46821576 -0.28964633 C715.13611477 -0.289707 715.80401378 -0.28976766 716.49215216 -0.28983017 C738.64745913 -0.29190623 760.80273453 -0.30736619 782.95803069 -0.32848817 C804.55401119 -0.34875014 826.14995628 -0.35422171 847.74594452 -0.34471754 C860.57262814 -0.33950399 873.3991938 -0.34537329 886.22586043 -0.36725221 C894.80104361 -0.38077252 903.37614571 -0.37967237 911.95132972 -0.36685025 C916.83262289 -0.35996191 921.71369076 -0.35925564 926.59496369 -0.37641034 C963.24618528 -0.4971718 995.07995977 3.84945155 1023.95319158 28.12880117 C1024.96123845 28.96024648 1025.96928533 29.79169179 1027.00787908 30.64833242 C1049.28647158 49.94680151 1063.22575125 78.04152189 1066.95319158 107.12880117 C1068.97426375 145.071992 1060.90684063 177.22292534 1035.57819158 206.25380117 C1014.01155988 229.53384402 984.86832582 244.10823202 952.95319158 246.12880117 C946.36572136 246.31529878 939.7725341 246.25536428 933.18317205 246.24232656 C931.18172248 246.24204417 929.1802728 246.24220343 927.17882329 246.24276906 C921.76842184 246.24305502 916.35804272 246.23719088 910.94764644 246.23019511 C905.28487399 246.223928 899.62210099 246.22335512 893.95932561 246.2221697 C883.24632361 246.21906627 872.53333187 246.21086622 861.82033437 246.20082021 C849.61961047 246.18962836 837.41888607 246.18414088 825.2181583 246.17912477 C800.12982908 246.16868276 775.04151389 246.15034958 749.95319158 246.12880117 C749.95319158 258.33880117 749.95319158 270.54880117 749.95319158 283.12880117 C569.44319158 283.12880117 388.93319158 283.12880117 202.95319158 283.12880117 C202.95319158 270.91880117 202.95319158 258.70880117 202.95319158 246.12880117 C196.88750798 246.1392748 190.82182439 246.14974843 184.5723322 246.16053945 C164.50771073 246.19371267 144.44308815 246.21588627 124.3784464 246.23242551 C112.21600995 246.24271841 100.05359957 246.25674063 87.89117986 246.27968007 C77.28488552 246.29967491 66.67861006 246.31253202 56.07229739 246.31697816 C50.46138941 246.31957524 44.85053543 246.3256378 39.23964483 246.34026128 C33.94721248 246.35394165 28.65485586 246.35800289 23.36240751 246.35501653 C21.43083007 246.35556205 19.49924983 246.3594767 17.56768781 246.36721212 C3.1360718 246.42212119 -11.22351182 246.01715928 -25.17180842 241.87880117 C-26.29172175 241.55456167 -26.29172175 241.55456167 -27.43425959 241.22377187 C-59.09835386 231.74785334 -85.1734779 209.73496532 -100.85930842 180.81630117 C-105.31402593 172.25788537 -108.4739864 163.41240063 -111.04680842 154.12880117 C-111.38712092 152.94028554 -111.72743342 151.75176992 -112.07805842 150.52723867 C-119.29750502 119.84459064 -113.56493901 85.91343257 -97.54680842 59.00380117 C-93.82861011 53.00132856 -89.66321187 47.46511158 -85.04680842 42.12880117 C-84.39583186 41.3334496 -83.7448553 40.53809804 -83.07415217 39.71864492 C-63.20828483 16.28806119 -30.91521659 0.01902063 0 0 Z " fill="#FEFEFE" transform="translate(114.04680842161179,-0.128801167011261)"/>
<path d="M0 0 C0.67797321 -0.00177501 1.35594641 -0.00355002 2.05446427 -0.00537882 C4.3232157 -0.01010473 6.59190317 -0.00774924 8.86065751 -0.00541991 C10.51191295 -0.00737379 12.16316792 -0.009763 13.81442216 -0.01254788 C18.36669978 -0.0189465 22.91895975 -0.01910961 27.471241 -0.01827047 C32.41845006 -0.01844 37.3656528 -0.02434646 42.3128587 -0.02951133 C52.13183349 -0.03883968 61.95080378 -0.04275978 71.76978245 -0.0450303 C83.52852354 -0.04799178 95.28725864 -0.0566889 107.04599659 -0.06544458 C135.4696974 -0.08629272 163.89340002 -0.09676304 192.31710656 -0.10557419 C201.73166505 -0.10850885 211.14622331 -0.11187883 220.56078154 -0.1155414 C221.22510499 -0.11579969 221.88942845 -0.11605798 222.57388291 -0.1163241 C225.26161825 -0.11737035 227.94935358 -0.11841877 230.63708892 -0.11946992 C276.61513574 -0.13743529 322.59318294 -0.15281304 368.57123278 -0.16022895 C372.18238917 -0.16081292 375.79354555 -0.16141018 379.40470194 -0.16200657 C380.12103178 -0.16212469 380.83736162 -0.16224281 381.57539843 -0.16236451 C388.83267485 -0.16356187 396.08995126 -0.16477064 403.34722768 -0.16599704 C404.80231882 -0.16624227 406.25740997 -0.16648613 407.71250112 -0.16672861 C454.42879413 -0.17451566 501.14506199 -0.1968928 547.86134402 -0.22940504 C581.43009727 -0.25275937 614.99884551 -0.27430662 648.56760675 -0.28141135 C649.6037577 -0.28163188 649.6037577 -0.28163188 650.660841 -0.28185687 C665.82713736 -0.28504214 680.99343366 -0.28709272 696.15973031 -0.28808442 C702.26255881 -0.28849914 708.36538729 -0.28905403 714.46821576 -0.28964633 C715.13611477 -0.289707 715.80401378 -0.28976766 716.49215216 -0.28983017 C738.64745913 -0.29190623 760.80273453 -0.30736619 782.95803069 -0.32848817 C804.55401119 -0.34875014 826.14995628 -0.35422171 847.74594452 -0.34471754 C860.57262814 -0.33950399 873.3991938 -0.34537329 886.22586043 -0.36725221 C894.80104361 -0.38077252 903.37614571 -0.37967237 911.95132972 -0.36685025 C916.83262289 -0.35996191 921.71369076 -0.35925564 926.59496369 -0.37641034 C963.24618528 -0.4971718 995.07995977 3.84945155 1023.95319158 28.12880117 C1024.96123845 28.96024648 1025.96928533 29.79169179 1027.00787908 30.64833242 C1049.28647158 49.94680151 1063.22575125 78.04152189 1066.95319158 107.12880117 C1068.97426375 145.071992 1060.90684063 177.22292534 1035.57819158 206.25380117 C1014.01155988 229.53384402 984.86832582 244.10823202 952.95319158 246.12880117 C946.36572136 246.31529878 939.7725341 246.25536428 933.18317205 246.24232656 C931.18172248 246.24204417 929.1802728 246.24220343 927.17882329 246.24276906 C921.76842184 246.24305502 916.35804272 246.23719088 910.94764644 246.23019511 C905.28487399 246.223928 899.62210099 246.22335512 893.95932561 246.2221697 C883.24632361 246.21906627 872.53333187 246.21086622 861.82033437 246.20082021 C849.61961047 246.18962836 837.41888607 246.18414088 825.2181583 246.17912477 C800.12983039 246.16868276 775.04151156 246.15110248 749.95319158 246.12880117 C749.95319158 241.50880117 749.95319158 236.88880117 749.95319158 232.12880117 C750.99311443 232.12641281 752.03303727 232.12402446 753.10447294 232.12156373 C778.47191951 232.06262648 803.83927219 231.9866564 829.20661527 231.89308625 C841.47434548 231.84822497 853.74204728 231.80878823 866.0098322 231.78236562 C876.70922329 231.75930702 887.40852376 231.72582188 898.10784286 231.68009961 C903.76687078 231.65627302 909.42580953 231.63747528 915.08488637 231.63118726 C920.42501425 231.62508828 925.7649143 231.60491714 931.1049574 231.57452565 C933.05179996 231.56582186 934.99867238 231.56200669 936.94553357 231.563793 C955.35691489 231.5753394 971.9906038 229.5395055 988.95319158 222.12880117 C989.99991033 221.67634023 991.04662908 221.22387929 992.12506658 220.75770742 C1017.07982573 209.10555136 1036.22253856 187.77890335 1045.95319158 162.12880117 C1050.46405824 149.21615012 1053.3405761 136.42282658 1053.20319158 122.69130117 C1053.18977727 121.16883779 1053.18977727 121.16883779 1053.17609197 119.61561757 C1052.70736391 89.39844379 1038.9500944 63.19712092 1017.87506658 42.04286367 C995.5249166 21.09994535 966.26358864 13.78278019 936.34500867 13.87432557 C934.70314306 13.87193094 933.06127854 13.86866269 931.41941619 13.86460897 C926.92585137 13.85603097 922.43237064 13.85979787 917.93880464 13.8656647 C913.04315382 13.86984887 908.14751795 13.86242521 903.25187081 13.85651219 C894.6774914 13.84776005 886.10313587 13.84643457 877.5287531 13.85001546 C864.77816919 13.85532637 852.02760838 13.84922326 839.27702698 13.84093253 C815.17945532 13.82569436 791.08189416 13.82398725 766.98431869 13.82645556 C748.37685384 13.82828833 729.76939249 13.82652895 711.161928 13.82223111 C708.48846444 13.82162653 705.81500089 13.82102747 703.14153733 13.82042751 C701.8010362 13.82012582 700.46053507 13.81982394 699.12003394 13.81952187 C698.45556275 13.81937219 697.79109156 13.81922251 697.10648488 13.81906829 C695.76242104 13.81876476 694.41835719 13.81846008 693.07429335 13.81815425 C654.94672261 13.80948347 616.81915315 13.80483573 578.69158155 13.80910188 C577.9858551 13.80917994 577.28012865 13.80925799 576.55301654 13.80933842 C568.68374123 13.81021118 560.81446593 13.81114045 552.94519062 13.81208905 C552.23473535 13.81217456 551.52428007 13.81226007 550.79229584 13.81234817 C546.48260054 13.81286696 546.48260054 13.81286696 542.17290524 13.81339039 C496.72807733 13.81892639 451.28326973 13.81138248 405.83844548 13.79261953 C394.38652661 13.78789718 382.93460772 13.78321661 371.48268872 13.77878267 C370.42492836 13.77837268 370.42492836 13.77837268 369.34579909 13.77795442 C347.60706996 13.76958131 325.86834252 13.76490329 304.12961179 13.7640751 C303.44697545 13.76404873 302.76433911 13.76402237 302.06101682 13.7639952 C287.07462952 13.76345439 272.08824234 13.76382695 257.10185507 13.76503492 C251.73936096 13.76546053 246.37686683 13.76582566 241.01437271 13.76616436 C239.01445708 13.76629224 237.01454145 13.76642978 235.01462582 13.76656734 C215.09783187 13.76773347 195.18105182 13.76108388 175.26426107 13.75048047 C152.61540127 13.73843485 129.96656864 13.73686224 107.31770845 13.74927064 C94.64347267 13.75590352 81.96930184 13.75425822 69.29507124 13.74068213 C60.82685397 13.73244279 52.35868538 13.7351285 43.89047207 13.74665739 C39.06714742 13.75291881 34.24394957 13.7545016 29.4206322 13.74279406 C25.02544564 13.73222403 20.63049283 13.73566972 16.23531862 13.74989859 C14.66227983 13.75260823 13.08922201 13.75039032 11.51620122 13.74239144 C-20.16588164 13.59239113 -47.33500491 25.10063053 -70.04680842 47.12880117 C-84.22964711 61.25852061 -93.48878478 79.77437915 -98.04680842 99.12880117 C-98.27239436 100.04274648 -98.4979803 100.95669179 -98.73040217 101.89833242 C-104.74067947 130.87201401 -96.92260529 160.89302839 -80.99212092 185.27333242 C-72.88785304 196.59852727 -62.9416265 206.81459626 -51.04680842 214.12880117 C-50.11352717 214.72176992 -49.18024592 215.31473867 -48.21868342 215.92567617 C-32.58762308 225.5007236 -13.84896882 231.26420112 4.53323919 231.28701955 C5.38366107 231.29195753 6.23408296 231.29689551 7.11027521 231.30198312 C9.95228058 231.31730859 12.79426345 231.32570529 15.63629705 231.33412343 C17.67656699 231.34370585 19.71683497 231.35371614 21.75710088 231.36412221 C27.29168042 231.39113793 32.82626845 231.41216555 38.36087734 231.4321242 C44.14647607 231.4540043 49.93204872 231.48138309 55.71762639 231.50818044 C66.67157098 231.55807993 77.62553007 231.60302895 88.579503 231.6462028 C101.05100615 231.69559861 113.52248311 231.75050806 125.99396092 231.80588239 C151.64701337 231.91966034 177.30009094 232.02650851 202.95319158 232.12880117 C202.95319158 236.74880117 202.95319158 241.36880117 202.95319158 246.12880117 C176.76161891 246.17561487 150.57005255 246.21083583 124.3784464 246.23242551 C112.21600995 246.24271841 100.05359957 246.25674063 87.89117986 246.27968007 C77.28488552 246.29967491 66.67861006 246.31253202 56.07229739 246.31697816 C50.46138941 246.31957524 44.85053543 246.3256378 39.23964483 246.34026128 C33.94721248 246.35394165 28.65485586 246.35800289 23.36240751 246.35501653 C21.43083007 246.35556205 19.49924983 246.3594767 17.56768781 246.36721212 C3.1360718 246.42212119 -11.22351182 246.01715928 -25.17180842 241.87880117 C-26.29172175 241.55456167 -26.29172175 241.55456167 -27.43425959 241.22377187 C-59.09835386 231.74785334 -85.1734779 209.73496532 -100.85930842 180.81630117 C-105.31402593 172.25788537 -108.4739864 163.41240063 -111.04680842 154.12880117 C-111.38712092 152.94028554 -111.72743342 151.75176992 -112.07805842 150.52723867 C-119.29750502 119.84459064 -113.56493901 85.91343257 -97.54680842 59.00380117 C-93.82861011 53.00132856 -89.66321187 47.46511158 -85.04680842 42.12880117 C-84.39583186 41.3334496 -83.7448553 40.53809804 -83.07415217 39.71864492 C-63.20828483 16.28806119 -30.91521659 0.01902063 0 0 Z " fill="#4D4D4D" transform="translate(114.04680842161179,-0.128801167011261)"/>
<path d="M0 0 C0.78246094 0.61875 1.56492187 1.2375 2.37109375 1.875 C15.75629948 13.07072014 22.6488476 28.93315269 25 46 C25.571504 56.72669054 24.92293183 66.59182102 22 77 C21.74476563 77.94230469 21.48953125 78.88460937 21.2265625 79.85546875 C16.17511842 95.9134997 3.87776659 108.26864405 -10.48828125 116.41015625 C-28.21495414 125.20624431 -50.20439839 127.2398922 -69.16015625 121.37890625 C-87.51037998 115.05497747 -101.06587016 104.27768545 -110.25 86.9375 C-118.82033322 68.55157147 -119.06171535 48.03869019 -113.00390625 28.84375 C-106.51166882 11.77073808 -94.36429468 -1.00523008 -78 -9 C-52.76301922 -19.48809591 -21.66993867 -17.36489242 0 0 Z " fill="#7BB40A" transform="translate(1080,68)"/>
<path d="M0 0 C1.49760372 1.31259091 2.97869195 2.64442231 4.4375 4 C5.36755859 4.79470703 5.36755859 4.79470703 6.31640625 5.60546875 C17.52721672 15.76291448 24.61916329 32.16692712 25.57641602 47.1784668 C26.38651263 67.060666 23.59907246 85.89235338 10 101.4375 C8.49811961 102.97705297 6.97847414 104.49957781 5.4375 106 C4.84710937 106.62261719 4.25671875 107.24523437 3.6484375 107.88671875 C-10.04919606 121.31281332 -29.87069825 125.30023103 -48.29907227 125.31469727 C-67.62220275 125.03257121 -84.58768756 117.60972669 -98.484375 104.13671875 C-106.85515187 95.19183993 -111.52789468 84.74685932 -114.5625 73 C-114.7382959 72.39865234 -114.9140918 71.79730469 -115.09521484 71.17773438 C-116.12265395 66.38946016 -115.7906808 61.37659202 -115.8125 56.5 C-115.833125 55.37851563 -115.85375 54.25703125 -115.875 53.1015625 C-115.96392132 33.8500969 -108.92007137 18.75595247 -95.9375 4.8125 C-71.23144527 -19.0586343 -27.12909436 -21.13688895 0 0 Z " fill="#7BB40A" transform="translate(925.5625,67)"/>
<path d="M0 0 C29.5 0 29.5 0 36.5 6 C39.99163022 9.82721024 43.23221773 13.8761273 46.48046875 17.91015625 C49.26427476 21.3240951 52.1222227 24.66537498 55 28 C59.28195953 32.96992725 63.48823893 37.99063703 67.62109375 43.0859375 C70.15201735 46.18621502 72.70835328 49.26393819 75.2734375 52.3359375 C75.73065186 52.88403076 76.18786621 53.43212402 76.65893555 53.99682617 C77.77233906 55.33145496 78.88612882 56.6657615 80 58 C80.00879936 57.13342522 80.00879936 57.13342522 80.01777649 56.24934387 C80.08176354 50.23060537 80.16619693 44.21239895 80.26245117 38.1940918 C80.29568351 35.9487205 80.32372069 33.703266 80.34643555 31.45776367 C80.38001202 28.22799257 80.43233073 24.99898273 80.48828125 21.76953125 C80.49467117 20.76727005 80.5010611 19.76500885 80.50764465 18.7323761 C80.69078634 10.02967532 80.69078634 10.02967532 84 6 C89.08223714 1.19247838 94.14363294 -0.26656049 101.0546875 -0.1953125 C102.16328125 -0.18886719 103.271875 -0.18242188 104.4140625 -0.17578125 C105.55617188 -0.15902344 106.69828125 -0.14226563 107.875 -0.125 C109.62296875 -0.11146484 109.62296875 -0.11146484 111.40625 -0.09765625 C114.27104577 -0.07417432 117.13541535 -0.04133141 120 0 C120.07015071 15.65552065 120.12301781 31.31099871 120.15543652 46.96663761 C120.17089068 54.23619409 120.19195233 61.50565278 120.22631836 68.77514648 C120.25626529 75.11289599 120.27558555 81.45057466 120.28226548 87.78839296 C120.28616882 91.14274552 120.2953116 94.49689546 120.31719017 97.85118294 C120.33896962 101.60021093 120.34196661 105.3488193 120.34057617 109.09790039 C120.351362 110.20417282 120.36214783 111.31044525 120.3732605 112.45024109 C120.34471617 119.56373776 119.94504324 125.05495676 114.6875 130.3125 C108.41636122 134.25019179 102.26258998 134.8754903 95 134 C85.25411302 131.66344665 79.59452257 123.35746123 73.59619141 115.95898438 C71.64372912 113.56275352 69.64021822 111.21353449 67.63061523 108.86523438 C63.16724547 103.643368 58.8082471 98.33775342 54.47363281 93.00878906 C51.75207119 89.69843321 48.99112997 86.42402546 46.21875 83.15625 C45.7144043 82.56102539 45.21005859 81.96580078 44.69042969 81.35253906 C43.46070035 79.90134188 42.23040888 78.45062107 41 77 C40.98018066 78.23564697 40.96036133 79.47129395 40.93994141 80.74438477 C40.86359426 85.34972749 40.77492243 89.95476622 40.68261719 94.55981445 C40.64444739 96.549011 40.60957402 98.53827374 40.578125 100.52758789 C40.53221303 103.3949339 40.47426253 106.26182888 40.4140625 109.12890625 C40.39673569 110.45276085 40.39673569 110.45276085 40.37905884 111.80335999 C40.22974461 118.11826197 39.85972064 123.5933027 35.875 128.75 C24.99157285 137.26746472 14.03297343 134 0 134 C0 89.78 0 45.56 0 0 Z " fill="#4E4E4E" transform="translate(352,57)"/>
<path d="M0 0 C8.23495834 7.06790214 8.23495834 7.06790214 8.828125 13.35546875 C8.29459098 19.65117014 5.83110459 24.47363742 1.515625 29.04296875 C-2.00046643 31.87537574 -4.74060176 32.36805735 -9.22412109 32.29907227 C-13.31264892 31.83581177 -16.91542973 30.21447423 -20.671875 28.60546875 C-22.22632969 27.95724446 -23.78228363 27.3126016 -25.33984375 26.671875 C-26.35534302 26.23983765 -26.35534302 26.23983765 -27.39135742 25.79907227 C-37.13948038 22.27755858 -53.03144612 21.71582158 -62.484375 26.04296875 C-70.74980823 31.39908884 -74.43268753 39.64717273 -76.484375 49.04296875 C-77.59971288 60.05693036 -76.10609619 70.96126971 -69.484375 80.04296875 C-63.62705358 86.76127728 -57.28725976 89.50440036 -48.49609375 90.3203125 C-41.84187597 90.53169172 -36.65178207 89.50993158 -30.484375 87.04296875 C-30.154375 83.41296875 -29.824375 79.78296875 -29.484375 76.04296875 C-30.33 76.10097656 -31.175625 76.15898437 -32.046875 76.21875 C-38.55692721 76.47767253 -43.36394784 76.40927195 -48.8984375 72.8203125 C-56.50743115 64.29299203 -53.484375 54.02219049 -53.484375 43.04296875 C-32.694375 43.04296875 -11.904375 43.04296875 9.515625 43.04296875 C9.598125 52.61296875 9.680625 62.18296875 9.765625 72.04296875 C9.80204102 75.05035156 9.83845703 78.05773437 9.87597656 81.15625 C9.88766562 83.55598233 9.89785693 85.95572263 9.90625 88.35546875 C9.92671387 89.58845703 9.94717773 90.82144531 9.96826172 92.09179688 C9.97171715 100.64744868 8.91436538 105.96448029 3.328125 112.66796875 C-13.54569588 126.91697305 -35.27198492 127.27038683 -56.484375 126.04296875 C-73.62152902 124.08999761 -89.46484402 115.29659097 -100.796875 102.4140625 C-114.22589184 84.94108037 -117.96299125 64.32247216 -115.19140625 42.76416016 C-112.00195657 24.80635812 -102.23852581 10.43914369 -87.921875 -0.39453125 C-63.33359179 -17.22912288 -24.22339658 -19.08163787 0 0 Z " fill="#4E4E4E" transform="translate(601.484375,65.95703125)"/>
<path d="M0 0 C18.88571218 -0.77259732 18.88571218 -0.77259732 25 4 C31.47966685 10.35967302 34.72916789 18.24117162 38.4375 26.375 C39.13886621 27.89191978 39.84111197 29.40843317 40.54418945 30.92456055 C42.35703302 34.84260198 44.15510468 38.76721319 45.94750977 42.69464111 C46.96093376 44.91442989 47.97704301 47.13296666 48.99414062 49.35107422 C52.44564897 56.88221546 55.86715888 64.42608991 59.26452637 71.98179626 C61.09447464 76.03722144 62.96709793 80.06959936 64.87675476 84.08808899 C66.11712811 86.70302098 67.34040946 89.32576799 68.56192017 91.94955444 C69.40585059 93.74516048 70.27317632 95.52971365 71.14135742 97.3137207 C74.51657627 104.60327442 76.24436982 110.94203723 75 119 C72.42512828 125.72327616 68.90020754 130.22717839 62.25 133.25 C56.85087061 134.49595294 52.10312516 134.70104172 46.8125 132.9375 C38.4471749 127.17472049 36.87384375 121.07199375 33 111 C13.2 110.505 13.2 110.505 -7 110 C-7.99 113.3 -8.98 116.6 -10 120 C-12.75032681 126.41742923 -15.03806412 129.79892451 -21.25 133.25 C-27.61349643 134.98549903 -33.34824827 134.65335277 -39.14453125 131.40234375 C-43.72790743 127.93827628 -47.56861423 122.58240449 -49 117 C-50.33884151 105.84298738 -42.95173741 94.28095886 -38.3477478 84.41567993 C-36.44128286 80.32889877 -34.55044352 76.23490868 -32.66015625 72.140625 C-32.27193192 71.30014114 -31.88370758 70.45965729 -31.48371887 69.59370422 C-27.4641875 60.87193572 -23.56830882 52.09666079 -19.6875 43.3125 C-13.27405315 28.80393584 -6.71128093 14.37358438 0 0 Z " fill="#4E4E4E" transform="translate(263,57)"/>
<path d="M0 0 C4.71039711 4.10358266 8.85839105 8.19792201 9.9609375 14.54296875 C10.22067276 20.50688999 8.83154081 24.57285832 4.93359375 29.171875 C1.34410995 32.79761622 -0.86853784 34.45788919 -6.05859375 34.6640625 C-11.78685046 34.4797726 -16.61313161 32.73171774 -21.9375 30.75 C-33.66174942 26.71210117 -46.78983323 24.28575907 -58.6875 29.3515625 C-59.55375 29.79628906 -59.55375 29.79628906 -60.4375 30.25 C-61.51 30.78625 -62.5825 31.3225 -63.6875 31.875 C-69.98288887 37.31192675 -72.77025267 45.12520095 -73.65820312 53.27587891 C-74.2734501 64.04530792 -73.81701002 75.77838804 -67.1875 84.8125 C-59.9616492 91.21723139 -50.88194025 93.77522537 -41.32421875 93.5703125 C-33.91345754 92.74800882 -26.72679415 90.24350109 -19.609375 88.09375 C-18.39765625 87.7328125 -17.1859375 87.371875 -15.9375 87 C-14.31328125 86.49726563 -14.31328125 86.49726563 -12.65625 85.984375 C-7.63998469 84.83988728 -3.84877815 84.50285274 0.75 86.9375 C5.07617826 90.4945799 8.99143015 94.6575722 9.8984375 100.36328125 C10.01918471 107.16134924 8.23347239 111.36687298 3.64453125 116.3203125 C-1.55788985 121.31095363 -6.53133075 124.25894563 -13.4375 126.25 C-14.44554687 126.54777344 -15.45359375 126.84554687 -16.4921875 127.15234375 C-38.32692441 132.5243822 -63.33934772 131.20757999 -82.921875 119.58984375 C-98.09246842 109.90586483 -108.44067831 95.32848479 -112.89453125 77.91796875 C-116.89964609 58.23815984 -114.54663139 37.71658408 -103.625 20.5625 C-92.48929577 4.89317573 -77.45453429 -5.17304768 -58.4375 -8.75 C-40.09307609 -11.85046601 -15.29071105 -11.48492288 0 0 Z " fill="#4E4E4E" transform="translate(190.4375,62.75)"/>
<path d="M0 0 C3.9998593 -0.08783475 7.99946704 -0.14067102 12 -0.1875 C13.12535156 -0.21263672 14.25070312 -0.23777344 15.41015625 -0.26367188 C23.40439047 -0.33379674 29.50187994 0.11024864 35.875 5.375 C40.03922781 10.51904612 40.29446386 15.20876703 40.2746582 21.65478516 C40.27976913 22.51566742 40.28488007 23.37654968 40.29014587 24.26351929 C40.30402756 27.1054381 40.30308533 29.94711382 40.30078125 32.7890625 C40.30467065 34.77338755 40.30900582 36.75771176 40.31376648 38.74203491 C40.32122688 42.90308325 40.32093993 47.06404675 40.31567383 51.22509766 C40.30989756 56.53419709 40.32676645 61.84294558 40.3500185 67.15198708 C40.36482133 71.25289918 40.36561835 75.35372822 40.36250877 79.45466232 C40.3630193 81.41050279 40.36820606 83.36634825 40.37832069 85.32216263 C40.5009919 112.37415493 40.5009919 112.37415493 31 123 C18.72422698 134.05038392 3.25918035 135.7863963 -12.54931641 135.18359375 C-24.23782433 134.30794542 -36.70869706 129.76134239 -45.46484375 121.8125 C-50.55717666 115.80017819 -53.40969283 108.23762731 -53.26953125 100.4140625 C-52.73604525 95.63588353 -51.04713221 91.91245246 -47.515625 88.61328125 C-40.96549956 84.48322428 -32.40475308 85.13827281 -25 86 C-18.9496062 87.94508956 -15.94468723 91.86512725 -13.0078125 97.328125 C-12.09860907 99.17366932 -12.09860907 99.17366932 -10 100 C-5.89455654 100.45168208 -5.89455654 100.45168208 -2.33351421 98.73707867 C-0.71560855 96.62954251 -0.61830692 95.59024989 -0.60127258 92.95674133 C-0.58873444 92.1364444 -0.57619629 91.31614746 -0.5632782 90.47099304 C-0.56471329 89.57475723 -0.56614838 88.67852142 -0.56762695 87.75512695 C-0.5574353 86.80859253 -0.54724365 85.86205811 -0.53674316 84.88684082 C-0.50651582 81.75392818 -0.49733228 78.6213208 -0.48828125 75.48828125 C-0.4714418 73.31779455 -0.45329257 71.14731766 -0.43388367 68.97685242 C-0.38629794 63.26076315 -0.35654399 57.54471359 -0.33044434 51.82849121 C-0.30068207 45.99690914 -0.2541369 40.165464 -0.20898438 34.33398438 C-0.1228537 22.88939442 -0.05555184 11.44477636 0 0 Z " fill="#7CB40B" transform="translate(756,57)"/>
<path d="M0 0 C1.66289063 0.00966797 1.66289063 0.00966797 3.359375 0.01953125 C4.50148438 0.03628906 5.64359375 0.05304687 6.8203125 0.0703125 C8.56828125 0.08384766 8.56828125 0.08384766 10.3515625 0.09765625 C13.21635827 0.12113818 16.08072785 0.15398109 18.9453125 0.1953125 C19.03880666 16.12885268 19.10931649 32.06231865 19.15256119 47.99606514 C19.17317532 55.39460553 19.2012737 62.79297535 19.24707031 70.19140625 C19.28697356 76.64084802 19.31275367 83.09016625 19.32166648 89.53972805 C19.32687542 92.95391885 19.33909364 96.36775625 19.36823273 99.78183365 C19.39723313 103.59581786 19.40126971 107.40906795 19.39941406 111.22314453 C19.42098572 112.91599831 19.42098572 112.91599831 19.44299316 114.64305115 C19.41048282 120.81081671 19.13969102 124.54023411 14.9453125 129.1953125 C9.52687833 133.37202217 5.80490332 134.32724919 -0.9140625 134.29296875 C-2.02910156 134.28974609 -3.14414062 134.28652344 -4.29296875 134.28320312 C-5.45183594 134.27482422 -6.61070312 134.26644531 -7.8046875 134.2578125 C-8.97902344 134.25330078 -10.15335938 134.24878906 -11.36328125 134.24414062 C-14.26046822 134.23236344 -17.15755204 134.21591576 -20.0546875 134.1953125 C-20.12480952 118.39213707 -20.17769128 102.58900373 -20.21012402 86.78571129 C-20.22558425 79.44774546 -20.24665755 72.10987638 -20.28100586 64.77197266 C-20.31093415 58.3752691 -20.33026864 51.97863562 -20.33695298 45.581864 C-20.34085947 42.19568622 -20.3500224 38.80970888 -20.37187767 35.42359543 C-20.39362875 31.64083683 -20.39665531 27.85849459 -20.39526367 24.07568359 C-20.4060495 22.95646515 -20.41683533 21.8372467 -20.427948 20.68411255 C-20.40574685 15.11349371 -20.28336131 10.96519465 -17.0546875 6.1953125 C-12.06303213 1.33856674 -6.85613416 -0.0706818 0 0 Z " fill="#7BB409" transform="translate(670.0546875,56.8046875)"/>
<path d="M0 0 C0.93005859 0.64775391 0.93005859 0.64775391 1.87890625 1.30859375 C2.57113281 1.77136719 3.26335938 2.23414062 3.9765625 2.7109375 C11.05842774 8.1249242 15.58641789 16.50262913 16.87890625 25.30859375 C17.84033888 36.1431999 15.29497168 46.64810598 8.3828125 55.1484375 C2.19405741 61.90890206 -5.09214349 64.76371388 -14.13671875 65.46484375 C-23.95685796 65.87687756 -31.87130935 62.90083956 -39.12109375 56.30859375 C-47.01866322 48.19164735 -48.52289322 37.81266789 -48.38671875 26.94140625 C-47.62109348 16.47035473 -42.89815189 9.18306804 -35.12109375 2.30859375 C-26.20477766 -4.79884672 -9.98593223 -5.64762117 0 0 Z " fill="#FEFEFE" transform="translate(896.12109375,91.69140625)"/>
<path d="M0 0 C1.9921875 1.12109375 1.9921875 1.12109375 3.875 2.4375 C4.93074219 3.16646484 4.93074219 3.16646484 6.0078125 3.91015625 C12.28446453 8.80872417 15.39126782 14.98630346 17.875 22.4375 C18.68962677 35.57836466 18.44516577 46.32599351 9.6875 56.875 C2.80771526 64.00372432 -4.64466587 66.27923423 -14.375 66.6875 C-23.01356542 66.57095949 -30.56719879 63.66473541 -36.90234375 57.7890625 C-44.77054393 49.63807288 -46.73183514 40.65858089 -46.59790039 29.64697266 C-46.34909971 23.63125541 -45.19263214 18.68123369 -42.125 13.4375 C-41.7125 12.72207031 -41.3 12.00664063 -40.875 11.26953125 C-32.48235443 -1.43865082 -13.95202975 -5.74784324 0 0 Z " fill="#FEFEFE" transform="translate(1048.125,90.5625)"/>
<path d="M0 0 C5.93632029 3.09296395 9.60451648 7.61293837 13 13.3125 C15.13411202 20.09897622 14.91573537 27.17052925 11.9375 33.625 C8.83608002 39.13571516 5.14468105 43.01233859 -0.73046875 45.44140625 C-7.44754902 47.23102262 -16.00110815 47.68878036 -22.64453125 45.40234375 C-24.67764229 44.19336185 -26.29945258 42.95262188 -28 41.3125 C-28.48726562 40.84328125 -28.97453125 40.3740625 -29.4765625 39.890625 C-35.20054979 33.66453356 -36.65340989 27.60727105 -36.40625 19.37890625 C-35.48305835 12.41058469 -32.52418894 7.14396633 -27 2.8125 C-19.00205862 -2.73445934 -9.06597289 -3.75720689 0 0 Z " fill="#515151" transform="translate(544,214.6875)"/>
<path d="M0 0 C0.86560547 -0.00386719 1.73121094 -0.00773438 2.62304688 -0.01171875 C3.52474609 -0.00011719 4.42644531 0.01148438 5.35546875 0.0234375 C6.24556641 0.01183594 7.13566406 0.00023437 8.05273438 -0.01171875 C14.70620475 0.01787415 18.95733101 1.24373939 24.16796875 5.5859375 C30.12062664 12.63513763 31.2558027 18.38826048 30.99609375 27.69140625 C30.18362999 34.33820025 27.75440026 39.18700599 23.04296875 43.8984375 C16.92726815 47.56785786 11.85826051 47.70540937 4.85546875 47.6484375 C3.89318359 47.65617187 2.93089844 47.66390625 1.93945312 47.671875 C1.02099609 47.66929687 0.10253906 47.66671875 -0.84375 47.6640625 C-2.09998169 47.66067871 -2.09998169 47.66067871 -3.3815918 47.65722656 C-5.45703125 47.3984375 -5.45703125 47.3984375 -7.45703125 45.3984375 C-7.71772766 43.58363342 -7.71772766 43.58363342 -7.73168945 41.36352539 C-7.74122147 40.53248795 -7.75075348 39.7014505 -7.76057434 38.8452301 C-7.75966293 37.94626511 -7.75875153 37.04730011 -7.7578125 36.12109375 C-7.76209763 35.19880478 -7.76638275 34.27651581 -7.77079773 33.32627869 C-7.77654684 31.37353334 -7.77703703 29.42076658 -7.77270508 27.46801758 C-7.76954752 24.47635415 -7.79298855 21.48568151 -7.81835938 18.49414062 C-7.82063251 16.59895958 -7.8213358 14.70377588 -7.8203125 12.80859375 C-7.82952225 11.91165298 -7.83873199 11.01471222 -7.84822083 10.09059143 C-7.84199203 9.25640182 -7.83576324 8.42221222 -7.8293457 7.56274414 C-7.82997513 6.8293129 -7.83060455 6.09588165 -7.83125305 5.34022522 C-6.98187879 0.93293386 -4.09380928 0.0176693 0 0 Z " fill="#505050" transform="translate(454.45703125,213.6015625)"/>
<path d="M0 0 C1.9895312 1.6131334 3.36333843 3.06263946 5 5 C6.54091406 6.68818726 8.08264601 8.37562818 9.625 10.0625 C12.23392582 12.95190761 14.71410722 15.84779753 17 19 C17.02578125 17.96359375 17.0515625 16.9271875 17.078125 15.859375 C17.13441951 14.48954199 17.19176655 13.11975195 17.25 11.75 C17.26417969 11.06808594 17.27835938 10.38617188 17.29296875 9.68359375 C17.45879669 6.26753809 17.77463972 4.29779751 19.859375 1.54296875 C22.77221362 -0.55661383 24.48308306 -0.51288372 28 0 C30.15649414 0.95507812 30.15649414 0.95507812 32 3 C32.60740584 6.04578086 32.53598958 9.05971873 32.49609375 12.15625 C32.49754898 13.05492798 32.49900421 13.95360596 32.50050354 14.8795166 C32.4988438 16.77924848 32.4872741 18.67899369 32.46655273 20.57861328 C32.43760754 23.48918679 32.44593983 26.3979384 32.45898438 29.30859375 C32.45274673 31.1536547 32.44435559 32.99870989 32.43359375 34.84375 C32.43652939 35.71567993 32.43946503 36.58760986 32.44248962 37.48596191 C32.42346336 38.70237366 32.42346336 38.70237366 32.40405273 39.94335938 C32.39864975 40.65600952 32.39324677 41.36865967 32.38768005 42.10290527 C31.87895737 44.59231659 31.00815449 45.47786496 29 47 C25.625 47.5 25.625 47.5 22 47 C19.59765625 44.8203125 19.59765625 44.8203125 17 42 C16.14019531 41.07960937 15.28039062 40.15921875 14.39453125 39.2109375 C13.54246094 38.27507812 12.69039062 37.33921875 11.8125 36.375 C10.52279297 34.96347656 10.52279297 34.96347656 9.20703125 33.5234375 C7 31 7 31 5 28 C4.97421875 29.12019531 4.9484375 30.24039063 4.921875 31.39453125 C4.86559365 32.86722646 4.80824632 34.3398812 4.75 35.8125 C4.72873047 36.91948242 4.72873047 36.91948242 4.70703125 38.04882812 C4.46045641 43.49813209 4.46045641 43.49813209 2.17578125 45.98828125 C-1.02579532 47.47698562 -3.5228739 47.37932285 -7 47 C-9.01664491 45.48428817 -9.87854687 44.59432539 -10.38768005 42.10290527 C-10.39308304 41.39025513 -10.39848602 40.67760498 -10.40405273 39.94335938 C-10.41673691 39.13241821 -10.42942108 38.32147705 -10.44248962 37.48596191 C-10.43955399 36.61403198 -10.43661835 35.74210205 -10.43359375 34.84375 C-10.44145653 33.49573303 -10.44145653 33.49573303 -10.44947815 32.1204834 C-10.45590047 30.22079502 -10.45455862 28.32106688 -10.44604492 26.42138672 C-10.43753123 23.5106754 -10.46629846 20.60192376 -10.49804688 17.69140625 C-10.49965884 15.84635476 -10.49908144 14.00129978 -10.49609375 12.15625 C-10.50732773 11.28432007 -10.51856171 10.41239014 -10.53013611 9.51403809 C-10.46066933 3.50894616 -10.46066933 3.50894616 -8.15258789 0.95898438 C-5.1334017 -0.38607215 -3.27317548 -0.534396 0 0 Z " fill="#505050" transform="translate(591,214)"/>
<path d="M0 0 C7.90518733 1.3682055 12.62744697 9.24458465 17.33203125 15.171875 C19.1837932 17.56899095 19.1837932 17.56899095 21.25 19.5625 C21.27578125 18.44230469 21.3015625 17.32210937 21.328125 16.16796875 C21.38440635 14.69527354 21.44175368 13.2226188 21.5 11.75 C21.52126953 10.64301758 21.52126953 10.64301758 21.54296875 9.51367188 C21.79004074 4.05338089 21.79004074 4.05338089 24.109375 1.578125 C27.06768242 0.17454849 29.01484709 0.09070687 32.25 0.5625 C34.63943174 2.20239105 36.03440324 3.49847572 36.62329102 6.40478516 C36.78071207 8.72694554 36.80423499 11.01631996 36.78125 13.34375 C36.7850769 14.19424927 36.78890381 15.04474854 36.79284668 15.92102051 C36.79556458 17.71640204 36.78821182 19.51182324 36.77148438 21.30712891 C36.75007167 24.05330793 36.77128871 26.79687097 36.796875 29.54296875 C36.7942317 31.28906827 36.78910667 33.03516616 36.78125 34.78125 C36.78934692 35.60113403 36.79744385 36.42101807 36.80578613 37.26574707 C36.7439262 41.03169289 36.68678577 42.96008937 34.42919922 46.07373047 C31.15244113 48.31232232 29.12664095 48.21000836 25.25 47.5625 C23.00646631 45.70391579 21.42577658 44.15182702 19.625 41.9375 C19.17382812 41.41542969 18.72265625 40.89335937 18.2578125 40.35546875 C17.3547247 39.3044614 16.46230213 38.24419095 15.58105469 37.17480469 C14.66882662 36.06982411 13.74149605 34.97718899 12.80175781 33.89550781 C9.25 29.783867 9.25 29.783867 9.25 27.5625 C8.59 27.5625 7.93 27.5625 7.25 27.5625 C7.28480469 28.83867187 7.31960938 30.11484375 7.35546875 31.4296875 C7.38360231 33.09894521 7.41090293 34.7682171 7.4375 36.4375 C7.47520508 37.70013672 7.47520508 37.70013672 7.51367188 38.98828125 C7.52817383 40.19677734 7.52817383 40.19677734 7.54296875 41.4296875 C7.56653442 42.54512939 7.56653442 42.54512939 7.59057617 43.68310547 C7.47818604 44.30330566 7.3657959 44.92350586 7.25 45.5625 C3.56282562 48.02061625 1.60654296 47.87368164 -2.75 47.5625 C-5.75 45.5625 -5.75 45.5625 -6.13095093 43.74769592 C-6.13333771 43.01506027 -6.13572449 42.28242462 -6.13818359 41.52758789 C-6.14764008 40.69655045 -6.15709656 39.865513 -6.1668396 39.0092926 C-6.16076691 38.11032761 -6.15469421 37.21136261 -6.1484375 36.28515625 C-6.15130768 35.36286728 -6.15417786 34.44057831 -6.15713501 33.49034119 C-6.15917869 31.53758125 -6.15362764 29.58480098 -6.14111328 27.63208008 C-6.1250821 24.64032199 -6.14094227 21.64991865 -6.16015625 18.65820312 C-6.15817351 16.76301784 -6.15432921 14.86783341 -6.1484375 12.97265625 C-6.15754654 11.6272451 -6.15754654 11.6272451 -6.1668396 10.25465393 C-6.15738312 9.42046432 -6.14792664 8.58627472 -6.13818359 7.72680664 C-6.13579681 6.9933754 -6.13341003 6.25994415 -6.13095093 5.50428772 C-5.41690237 1.8646307 -3.49102076 0.71407243 0 0 Z " fill="#505050" transform="translate(386.75,213.4375)"/>
<path d="M0 0 C7.39613606 2.86788949 10.81518622 14.48349198 14.04882812 21.36938477 C14.94109241 23.25760229 15.85702495 25.13317376 16.7734375 27.00976562 C17.34784994 28.2258571 17.92081833 29.44263196 18.4921875 30.66015625 C19.26925049 32.28836304 19.26925049 32.28836304 20.06201172 33.94946289 C21.24939567 37.79237975 20.95249061 40.2960826 20.0625 44.1875 C18.875 46.125 18.875 46.125 17.0625 47.1875 C13.90923574 47.58165803 11.95174432 47.77010835 9.25 46 C7.7940304 43.77773062 7.52542641 41.78243612 7.0625 39.1875 C4.62014178 39.19350826 2.19056579 39.24078457 -0.25 39.3125 C-0.94029297 39.30992187 -1.63058594 39.30734375 -2.34179688 39.3046875 C-4.64450692 39.33233876 -4.64450692 39.33233876 -7.9375 40.1875 C-9.94245325 43.07082358 -9.94245325 43.07082358 -10.9375 46.1875 C-11.9375 47.1875 -11.9375 47.1875 -15.25 47.5625 C-18.9375 47.1875 -18.9375 47.1875 -21.4375 45.0625 C-23.3424948 41.41125997 -22.8939226 40.15367687 -21.9375 36.1875 C-20.91783996 33.5702272 -19.86128632 31.03952129 -18.69921875 28.48828125 C-18.37717972 27.77141647 -18.05514069 27.0545517 -17.7233429 26.31596375 C-17.04357351 24.80917122 -16.36008864 23.30404994 -15.6730957 21.80053711 C-14.62608073 19.50237217 -13.5986871 17.19609485 -12.57226562 14.88867188 C-11.90742354 13.42134271 -11.24144625 11.95452726 -10.57421875 10.48828125 C-10.26989426 9.80075272 -9.96556976 9.11322418 -9.65202332 8.40486145 C-7.39283886 3.52468725 -5.6064217 0.3578567 0 0 Z " fill="#505050" transform="translate(816.9375,213.8125)"/>
<path d="M0 0 C0.96615234 -0.00386719 1.93230469 -0.00773438 2.92773438 -0.01171875 C4.43110352 0.00568359 4.43110352 0.00568359 5.96484375 0.0234375 C6.97095703 0.01183594 7.97707031 0.00023437 9.01367188 -0.01171875 C9.97853516 -0.00785156 10.94339844 -0.00398437 11.9375 0 C12.81801025 0.00338379 13.69852051 0.00676758 14.60571289 0.01025391 C16.90234375 0.3984375 16.90234375 0.3984375 18.72827148 1.69677734 C19.90234375 3.3984375 19.90234375 3.3984375 19.65234375 7.0234375 C18.90234375 10.3984375 18.90234375 10.3984375 17.90234375 11.3984375 C15.71594922 11.47102696 13.52733986 11.48217533 11.33984375 11.4609375 C9.54353516 11.44740234 9.54353516 11.44740234 7.7109375 11.43359375 C6.78410156 11.42199219 5.85726562 11.41039062 4.90234375 11.3984375 C4.90234375 13.7084375 4.90234375 16.0184375 4.90234375 18.3984375 C5.67320312 18.37523437 6.4440625 18.35203125 7.23828125 18.328125 C8.24117187 18.31007812 9.2440625 18.29203125 10.27734375 18.2734375 C11.27507813 18.25023437 12.2728125 18.22703125 13.30078125 18.203125 C15.90234375 18.3984375 15.90234375 18.3984375 17.90234375 20.3984375 C18.15234375 23.8984375 18.15234375 23.8984375 17.90234375 27.3984375 C15.90234375 29.3984375 15.90234375 29.3984375 13.30078125 29.59375 C12.30304687 29.57054687 11.3053125 29.54734375 10.27734375 29.5234375 C8.77300781 29.49636719 8.77300781 29.49636719 7.23828125 29.46875 C6.46742188 29.44554687 5.6965625 29.42234375 4.90234375 29.3984375 C4.90234375 31.7084375 4.90234375 34.0184375 4.90234375 36.3984375 C5.73378906 36.36363281 6.56523438 36.32882813 7.421875 36.29296875 C9.05189453 36.25236328 9.05189453 36.25236328 10.71484375 36.2109375 C11.79378906 36.17613281 12.87273438 36.14132813 13.984375 36.10546875 C16.90234375 36.3984375 16.90234375 36.3984375 18.80078125 37.68359375 C19.90234375 39.3984375 19.90234375 39.3984375 19.71484375 43.0234375 C19.44671875 44.1371875 19.17859375 45.2509375 18.90234375 46.3984375 C14.9067695 48.39622462 9.8578238 47.62720255 5.46484375 47.6484375 C3.8705957 47.679375 3.8705957 47.679375 2.24414062 47.7109375 C1.22513672 47.71609375 0.20613281 47.72125 -0.84375 47.7265625 C-1.77888428 47.7359082 -2.71401855 47.74525391 -3.67749023 47.75488281 C-6.60307698 47.32399845 -7.28584975 46.68135474 -9.09765625 44.3984375 C-9.4853363 42.50134277 -9.4853363 42.50134277 -9.50170898 40.34179688 C-9.51439316 39.53085571 -9.52707733 38.71991455 -9.54014587 37.88439941 C-9.53721024 37.01246948 -9.5342746 36.14053955 -9.53125 35.2421875 C-9.53911278 33.89417053 -9.53911278 33.89417053 -9.5471344 32.5189209 C-9.55355672 30.61923252 -9.55221487 28.71950438 -9.54370117 26.81982422 C-9.53518748 23.9091129 -9.56395471 21.00036126 -9.59570312 18.08984375 C-9.59731509 16.24479226 -9.59673769 14.39973728 -9.59375 12.5546875 C-9.60498398 11.68275757 -9.61621796 10.81082764 -9.62779236 9.91247559 C-9.5588163 3.94980451 -9.5588163 3.94980451 -7.38525391 1.35107422 C-4.75955384 0.25763968 -2.84340515 0.01091319 0 0 Z " fill="#505050" transform="translate(656.09765625,213.6015625)"/>
<path d="M0 0 C2.72774561 0.96445291 3.91691702 1.54191702 6 3.625 C5.42307692 10.20192308 5.42307692 10.20192308 4 11.625 C-1.89371452 12.00119454 -7.26302493 10.91783945 -13 9.625 C-13.03143382 12.04872559 -13.03143382 12.04872559 -12 14.625 C-8.95792716 16.33835273 -8.95792716 16.33835273 -5.25 17.5625 C4.27952331 21.28868033 4.27952331 21.28868033 7 26.625 C7.99494355 32.25962931 7.23427576 36.82934973 4 41.625 C-1.80844127 46.99780817 -6.81347284 46.9615374 -14.46484375 46.9140625 C-19.3122438 46.51770051 -21.98462712 45.32765483 -26 42.625 C-28.56687367 38.7746895 -27.83288724 37.03930237 -27 32.625 C-22.11158356 31.28068548 -19.49963551 32.02941751 -15.03515625 33.921875 C-11.9278743 34.99540811 -9.25977401 34.82873588 -6 34.625 C-6.00210811 32.18788565 -6.00210811 32.18788565 -7 29.625 C-9.84694895 28.06210989 -9.84694895 28.06210989 -13.3125 27.0625 C-17.89589537 25.57918392 -20.93240296 24.42124242 -24 20.625 C-25.78983568 15.25549295 -25.88431724 10.42764667 -23.375 5.3125 C-16.51879271 -2.44583982 -9.54920932 -2.99854399 0 0 Z " fill="#515151" transform="translate(727,214.375)"/>
<path d="M0 0 C2.42680382 1.64598457 3.79535663 2.94559325 4.36642456 5.88796997 C4.51413538 8.27956569 4.52795156 10.6391665 4.49609375 13.03515625 C4.49754898 13.91022324 4.49900421 14.78529022 4.50050354 15.68687439 C4.49884598 17.53355241 4.48730062 19.38024444 4.46655273 21.22680664 C4.43756561 24.05609638 4.44595258 26.88351589 4.45898438 29.71289062 C4.45274777 31.50782162 4.44435744 33.30274669 4.43359375 35.09765625 C4.43652939 35.94457535 4.43946503 36.79149445 4.44248962 37.66407776 C4.34732112 43.57408314 4.34732112 43.57408314 2.59584045 45.72190857 C0.60821286 47.3137781 -0.47759944 47.40366364 -3 47.375 C-4.0209375 47.38660156 -4.0209375 47.38660156 -5.0625 47.3984375 C-7.59170351 46.87831904 -8.38377357 45.98970975 -10 44 C-10.38768005 42.10290527 -10.38768005 42.10290527 -10.40405273 39.94335938 C-10.41673691 39.13241821 -10.42942108 38.32147705 -10.44248962 37.48596191 C-10.43955399 36.61403198 -10.43661835 35.74210205 -10.43359375 34.84375 C-10.44145653 33.49573303 -10.44145653 33.49573303 -10.44947815 32.1204834 C-10.45590047 30.22079502 -10.45455862 28.32106688 -10.44604492 26.42138672 C-10.43753123 23.5106754 -10.46629846 20.60192376 -10.49804688 17.69140625 C-10.49965884 15.84635476 -10.49908144 14.00129978 -10.49609375 12.15625 C-10.50732773 11.28432007 -10.51856171 10.41239014 -10.53013611 9.51403809 C-10.4606934 3.51102741 -10.4606934 3.51102741 -8.15649414 0.95507812 C-5.18764253 -0.35978064 -3.21243547 -0.46848017 0 0 Z " fill="#515151" transform="translate(353,214)"/>
<path d="M0 0 C2.15649414 0.95507812 2.15649414 0.95507812 4 3 C4.60740584 6.04578086 4.53598958 9.05971873 4.49609375 12.15625 C4.49754898 13.05492798 4.49900421 13.95360596 4.50050354 14.8795166 C4.4988438 16.77924848 4.4872741 18.67899369 4.46655273 20.57861328 C4.43760754 23.48918679 4.44593983 26.3979384 4.45898438 29.30859375 C4.45274673 31.1536547 4.44435559 32.99870989 4.43359375 34.84375 C4.43652939 35.71567993 4.43946503 36.58760986 4.44248962 37.48596191 C4.42346336 38.70237366 4.42346336 38.70237366 4.40405273 39.94335938 C4.39864975 40.65600952 4.39324677 41.36865967 4.38768005 42.10290527 C3.8863391 44.55619445 2.93335638 45.45708604 1 47 C-0.9375 47.43359375 -0.9375 47.43359375 -3 47.4375 C-3.680625 47.45683594 -4.36125 47.47617187 -5.0625 47.49609375 C-7 47 -7 47 -8.59399414 45.51782227 C-10.6356785 41.86165092 -10.44820682 38.29998293 -10.43359375 34.21875 C-10.4388356 33.36825073 -10.44407745 32.51775146 -10.44947815 31.64147949 C-10.45589191 29.84612112 -10.4545697 28.05072069 -10.44604492 26.25537109 C-10.43752894 23.50933057 -10.46631307 20.76536664 -10.49804688 18.01953125 C-10.49965888 16.27343812 -10.49908137 14.52734132 -10.49609375 12.78125 C-10.50732773 11.96136597 -10.51856171 11.14148193 -10.53013611 10.29675293 C-10.48382555 6.50739087 -10.44243855 4.60515235 -8.15649414 1.47851562 C-5.22517108 -0.53123106 -3.48584413 -0.50835227 0 0 Z " fill="#525252" transform="translate(767,214)"/>
<path d="M0 0 C3.71615989 1.68916359 5.83904991 3.56323474 8 7 C8.75480318 11.55101918 8.52387164 15.74270807 6.75 20 C4.42186799 22.6607223 2.30676789 23.77791959 -1.18359375 24.37109375 C-5.65605835 24.5028648 -7.39444866 24.49201046 -11 21.5625 C-11.66 20.716875 -12.32 19.87125 -13 19 C-13.33 18.67 -13.66 18.34 -14 18 C-14.52263424 13.61733856 -15.02371348 8.98248992 -12.953125 4.97265625 C-8.93297211 0.1366488 -6.14127527 -0.41635765 0 0 Z " fill="#FBFBFB" transform="translate(536,225)"/>
<path d="M0 0 C6.16163774 0 6.90836217 0.02526611 11 4 C12.46230215 6.92460429 12.20908727 9.55652824 12.25 12.8125 C12.28867187 14.64748047 12.28867187 14.64748047 12.328125 16.51953125 C11.97707517 20.24316692 11.2348739 22.04505933 9 25 C5.58673752 27.53806697 4.36087656 28 0 28 C0 18.76 0 9.52 0 0 Z " fill="#F8F8F8" transform="translate(460,224)"/>
<path d="M0 0 C2.06232699 2.06232699 2.56808484 3.15594031 3.5078125 5.84375 C3.77207031 6.59527344 4.03632813 7.34679687 4.30859375 8.12109375 C4.57800781 8.90613281 4.84742188 9.69117187 5.125 10.5 C5.40214844 11.28503906 5.67929687 12.07007812 5.96484375 12.87890625 C8 18.72371459 8 18.72371459 8 21 C3.05 21 -1.9 21 -7 21 C-6.19143144 16.14858865 -5.16053594 12.25880098 -3.5 7.6875 C-2.83484375 5.83705078 -2.83484375 5.83705078 -2.15625 3.94921875 C-1 1 -1 1 0 0 Z " fill="#FBFBFB" transform="translate(276,114)"/>
<path d="M0 0 C1.9451 2.91765 2.45276317 4.62537285 3 8 C1.02 8 -0.96 8 -3 8 C-1.125 1.125 -1.125 1.125 0 0 Z " fill="#E1E1E1" transform="translate(816,234)"/>
</svg>
