<?xml version="1.0" encoding="UTF-8"?>
<svg version="1.1" xmlns="http://www.w3.org/2000/svg" width="600" height="144">
<path d="M0 0 C1.2718487 -0.00480972 1.2718487 -0.00480972 2.56939131 -0.0097166 C5.39970459 -0.01799262 8.22980494 -0.01210072 11.06012154 -0.00622082 C13.11420141 -0.00924259 15.16828016 -0.0131322 17.22235692 -0.01781338 C22.85878918 -0.02809873 28.49515788 -0.02591018 34.13159537 -0.02163279 C40.21351098 -0.01916656 46.29541125 -0.02817844 52.37732124 -0.03567028 C64.28919633 -0.04842203 76.20104945 -0.0502162 88.11292826 -0.04787002 C97.79464007 -0.04603637 107.47634527 -0.04779848 117.15805626 -0.05209446 C118.54970731 -0.05269686 119.94135835 -0.05329806 121.3330094 -0.05389806 C123.43016968 -0.05480533 125.52732996 -0.055714 127.62449023 -0.05663041 C147.11916221 -0.06505825 166.6138317 -0.0693968 186.10850525 -0.06522369 C187.21054454 -0.06498913 187.21054454 -0.06498913 188.33484726 -0.06474983 C192.05844378 -0.06394406 195.78204029 -0.06309829 199.5056368 -0.06223653 C200.24513652 -0.06206544 200.98463625 -0.06189435 201.74654505 -0.06171808 C203.24199235 -0.06137142 204.73743964 -0.06102289 206.23288693 -0.06067249 C229.50255345 -0.05531518 252.77218206 -0.06324669 276.04184151 -0.08170605 C302.19406371 -0.10242786 328.34626244 -0.11314845 354.49849331 -0.10913056 C357.28766322 -0.10873522 360.07683312 -0.10837367 362.86600304 -0.10803318 C363.89612621 -0.10789708 363.89612621 -0.10789708 364.94705995 -0.10775824 C375.30816071 -0.10659291 385.66923774 -0.11323557 396.03033257 -0.1238451 C407.81540309 -0.13590055 419.60043053 -0.13717399 431.38550507 -0.12505493 C437.39795775 -0.11915996 443.41030836 -0.11808405 449.42275429 -0.13005733 C454.92866122 -0.14089446 460.43438059 -0.13783846 465.94027866 -0.12379565 C467.93009788 -0.12114277 469.9199317 -0.12353377 471.90973662 -0.13153151 C491.1032413 -0.2033111 491.1032413 -0.2033111 500.14584541 3.25447559 C500.79511966 3.50230893 501.4443939 3.75014227 502.11334312 4.00548571 C510.73066928 7.59340544 517.64513455 12.57251814 524.14584541 19.25447559 C524.69498604 19.77138966 525.24412666 20.28830372 525.80990791 20.82088184 C529.5934469 24.69546856 531.94667902 29.35167482 534.39584541 34.12947559 C534.73760811 34.78955616 535.0793708 35.44963673 535.43148994 36.12971973 C542.1181435 49.72125097 542.37169631 67.5156491 538.52084541 82.00447559 C532.44684658 99.53290131 521.26440566 111.56815766 505.14584541 120.25447559 C490.29646544 127.24124821 474.46292511 126.52679729 458.44272041 126.44978809 C456.15058707 126.44605227 453.85845212 126.44320799 451.5663166 126.44121265 C445.56915979 126.43362102 439.57210173 126.41401143 433.5749836 126.3918047 C427.4410657 126.37124942 421.30713166 126.36219033 415.17318916 126.35213184 C403.16403148 126.33076091 391.1549467 126.29667961 379.14584541 126.25447559 C379.14584541 132.19447559 379.14584541 138.13447559 379.14584541 144.25447559 C287.40584541 144.25447559 195.66584541 144.25447559 101.14584541 144.25447559 C101.14584541 138.31447559 101.14584541 132.37447559 101.14584541 126.25447559 C99.89098335 126.26113743 98.63612129 126.26779926 97.34323311 126.27466297 C85.45759965 126.33575102 73.57199848 126.38058037 61.68624306 126.40991211 C55.57716971 126.42549927 49.46822415 126.44660926 43.35922432 126.48079395 C37.45234629 126.51363688 31.54559038 126.53138073 25.63862801 126.53910732 C23.39663461 126.5446064 21.1546471 126.55534331 18.91270638 126.57166576 C-13.05813719 126.79495404 -13.05813719 126.79495404 -26.10415459 119.75447559 C-26.75762871 119.41335743 -27.41110283 119.07223927 -28.0843792 118.72078419 C-43.99796081 109.97637501 -53.73527823 95.74883624 -58.97134209 78.59431934 C-60.21145906 73.40759314 -60.18410533 68.25049249 -60.16665459 62.94197559 C-60.19082451 61.48887989 -60.19082451 61.48887989 -60.21548271 60.00642872 C-60.22578576 44.56216556 -53.78356 28.32905337 -42.85415459 17.25447559 C-30.450914 6.33085575 -16.54939412 -0.09422606 0 0 Z " fill="#FDFDFD" transform="translate(59.85415458679199,-0.25447559356689453)"/>
<path d="M0 0 C1.2718487 -0.00480972 1.2718487 -0.00480972 2.56939131 -0.0097166 C5.39970459 -0.01799262 8.22980494 -0.01210072 11.06012154 -0.00622082 C13.11420141 -0.00924259 15.16828016 -0.0131322 17.22235692 -0.01781338 C22.85878918 -0.02809873 28.49515788 -0.02591018 34.13159537 -0.02163279 C40.21351098 -0.01916656 46.29541125 -0.02817844 52.37732124 -0.03567028 C64.28919633 -0.04842203 76.20104945 -0.0502162 88.11292826 -0.04787002 C97.79464007 -0.04603637 107.47634527 -0.04779848 117.15805626 -0.05209446 C118.54970731 -0.05269686 119.94135835 -0.05329806 121.3330094 -0.05389806 C123.43016968 -0.05480533 125.52732996 -0.055714 127.62449023 -0.05663041 C147.11916221 -0.06505825 166.6138317 -0.0693968 186.10850525 -0.06522369 C187.21054454 -0.06498913 187.21054454 -0.06498913 188.33484726 -0.06474983 C192.05844378 -0.06394406 195.78204029 -0.06309829 199.5056368 -0.06223653 C200.24513652 -0.06206544 200.98463625 -0.06189435 201.74654505 -0.06171808 C203.24199235 -0.06137142 204.73743964 -0.06102289 206.23288693 -0.06067249 C229.50255345 -0.05531518 252.77218206 -0.06324669 276.04184151 -0.08170605 C302.19406371 -0.10242786 328.34626244 -0.11314845 354.49849331 -0.10913056 C357.28766322 -0.10873522 360.07683312 -0.10837367 362.86600304 -0.10803318 C363.89612621 -0.10789708 363.89612621 -0.10789708 364.94705995 -0.10775824 C375.30816071 -0.10659291 385.66923774 -0.11323557 396.03033257 -0.1238451 C407.81540309 -0.13590055 419.60043053 -0.13717399 431.38550507 -0.12505493 C437.39795775 -0.11915996 443.41030836 -0.11808405 449.42275429 -0.13005733 C454.92866122 -0.14089446 460.43438059 -0.13783846 465.94027866 -0.12379565 C467.93009788 -0.12114277 469.9199317 -0.12353377 471.90973662 -0.13153151 C491.1032413 -0.2033111 491.1032413 -0.2033111 500.14584541 3.25447559 C500.79511966 3.50230893 501.4443939 3.75014227 502.11334312 4.00548571 C510.73066928 7.59340544 517.64513455 12.57251814 524.14584541 19.25447559 C524.69498604 19.77138966 525.24412666 20.28830372 525.80990791 20.82088184 C529.5934469 24.69546856 531.94667902 29.35167482 534.39584541 34.12947559 C534.73760811 34.78955616 535.0793708 35.44963673 535.43148994 36.12971973 C542.1181435 49.72125097 542.37169631 67.5156491 538.52084541 82.00447559 C532.44684658 99.53290131 521.26440566 111.56815766 505.14584541 120.25447559 C490.29646544 127.24124821 474.46292511 126.52679729 458.44272041 126.44978809 C456.15058707 126.44605227 453.85845212 126.44320799 451.5663166 126.44121265 C445.56915979 126.43362102 439.57210173 126.41401143 433.5749836 126.3918047 C427.4410657 126.37124942 421.30713166 126.36219033 415.17318916 126.35213184 C403.16403148 126.33076091 391.1549467 126.29667961 379.14584541 126.25447559 C379.14584541 123.61447559 379.14584541 120.97447559 379.14584541 118.25447559 C380.45081978 118.25305058 381.75579414 118.25162556 383.10031319 118.25015736 C395.45705976 118.23341735 407.81347996 118.19043068 420.17005348 118.12238503 C426.52124348 118.0882363 432.87219602 118.06302391 439.22348213 118.05891895 C445.36400034 118.05461002 451.50398395 118.02593287 457.64433479 117.98104382 C459.97559166 117.96815143 462.30691277 117.96373147 464.63820076 117.9683218 C484.86008057 117.99883746 501.86202245 115.85572114 517.39584541 101.56697559 C528.28518422 89.91895334 532.81519382 75.160566 532.6187458 59.46419239 C532.12607592 47.80700877 527.81665276 34.49569208 519.27084541 26.19197559 C518.56959541 25.55260059 517.86834541 24.91322559 517.14584541 24.25447559 C517.14584541 23.59447559 517.14584541 22.93447559 517.14584541 22.25447559 C516.5722126 21.98377247 515.99857979 21.71306934 515.40756416 21.43416309 C513.10894436 20.23522841 511.07794338 18.86975759 508.95834541 17.37947559 C499.48750586 11.01382934 489.86593473 7.93483698 478.47720814 8 C477.63721634 7.99679352 476.79722455 7.99358704 475.93177846 7.9902834 C473.12234194 7.98199442 470.31311921 7.98790386 467.50367928 7.99377918 C465.46696165 7.990758 463.43024515 7.98686868 461.39353067 7.98218662 C455.80044521 7.9718936 450.20742377 7.97409178 444.61433303 7.97836721 C438.58079833 7.98083207 432.54727912 7.97182324 426.51375008 7.96432972 C414.69465118 7.95157388 402.8755702 7.94978433 391.05646702 7.95212998 C381.45005546 7.95396326 371.84365056 7.95220231 362.23723984 7.94790554 C360.85666551 7.94730314 359.47609119 7.94670194 358.09551686 7.94610194 C356.0150683 7.94519467 353.93461974 7.94428601 351.85417119 7.94336959 C332.5127547 7.9349408 313.17134074 7.93060383 293.82992268 7.93477631 C293.10089524 7.93493268 292.3718678 7.93508906 291.62074862 7.93525017 C287.92582747 7.93605594 284.23090633 7.93690172 280.53598519 7.93776347 C279.80217489 7.93793456 279.06836458 7.93810565 278.3123176 7.93828192 C276.828375 7.93862858 275.3444324 7.93897711 273.86048979 7.93932751 C250.77224362 7.94468427 227.68403564 7.93675527 204.59579659 7.91829395 C178.64977143 7.8975718 152.70376993 7.88685168 126.75773603 7.89086944 C123.99045678 7.89126478 121.22317754 7.89162633 118.45589828 7.89196682 C117.7745356 7.89205755 117.09317292 7.89214828 116.39116289 7.89224176 C106.11114524 7.8934071 95.83115151 7.88676425 85.55113983 7.8761549 C73.857539 7.86409891 62.16398145 7.86282655 50.47037812 7.87494507 C44.50451324 7.88083985 38.53875122 7.88191651 32.57289314 7.86994267 C27.10950553 7.85910477 21.64630693 7.86216246 16.18292824 7.87620435 C14.20855682 7.87885703 12.23417069 7.87646684 10.25981369 7.86846849 C-7.89411846 7.80004093 -21.98779339 10.56722297 -36.23696709 22.65681934 C-47.13446331 33.47299097 -51.99925112 46.47580163 -52.16665459 61.56697559 C-52.08051532 77.09400068 -47.11106697 90.67468295 -36.27602959 102.00056934 C-23.59457992 113.80249911 -9.97595274 117.53432935 7.03329659 117.57332325 C8.57189339 117.58839169 8.57189339 117.58839169 10.14157295 117.60376453 C13.49064828 117.63435306 16.8396446 117.65156343 20.18881416 117.66853809 C22.5272253 117.68726935 24.86562982 117.70684419 27.20402718 117.7272234 C33.32770048 117.77834378 39.45139565 117.81807663 45.5751667 117.85536671 C51.8364106 117.89553287 58.09756511 117.94656744 64.35873604 117.99666309 C76.62104286 118.09318425 88.88340039 118.17766463 101.14584541 118.25447559 C101.14584541 120.89447559 101.14584541 123.53447559 101.14584541 126.25447559 C87.99267912 126.32430336 74.83955768 126.37745228 61.68624306 126.40991211 C55.57716971 126.42549927 49.46822415 126.44660926 43.35922432 126.48079395 C37.45234629 126.51363688 31.54559038 126.53138073 25.63862801 126.53910732 C23.39663461 126.5446064 21.1546471 126.55534331 18.91270638 126.57166576 C-13.05813719 126.79495404 -13.05813719 126.79495404 -26.10415459 119.75447559 C-26.75762871 119.41335743 -27.41110283 119.07223927 -28.0843792 118.72078419 C-43.99796081 109.97637501 -53.73527823 95.74883624 -58.97134209 78.59431934 C-60.21145906 73.40759314 -60.18410533 68.25049249 -60.16665459 62.94197559 C-60.19082451 61.48887989 -60.19082451 61.48887989 -60.21548271 60.00642872 C-60.22578576 44.56216556 -53.78356 28.32905337 -42.85415459 17.25447559 C-30.450914 6.33085575 -16.54939412 -0.09422606 0 0 Z " fill="#515151" transform="translate(59.85415458679199,-0.25447559356689453)"/>
<path d="M0 0 C8.46546515 4.52028234 13.12688 10.7419889 16.875 19.53515625 C19.57610601 29.61489332 18.90620126 41.35542062 13.875 50.53515625 C7.78992026 59.07157143 0.12528113 64.68402064 -10.0625 67.28515625 C-22.56822251 68.30603156 -33.19677118 66.75697074 -43.125 58.53515625 C-51.0629006 51.30599677 -53.66317844 42.2094554 -54.15625 31.70703125 C-54.06364687 22.30781344 -51.48565591 14.3870323 -45.1484375 7.3359375 C-40.01083891 2.42526464 -34.8595159 -0.31320239 -28.125 -2.46484375 C-18.89473195 -5.54159977 -8.69052413 -3.82340461 0 0 Z " fill="#7CB50C" transform="translate(543.125,30.46484375)"/>
<path d="M0 0 C7.54756336 5.31217854 12.12235314 12.66220291 14.53515625 21.52734375 C15.65277725 33.83417038 14.5823074 44.01092774 6.53515625 53.83984375 C-0.45150675 61.09211543 -8.91139871 65.01097151 -18.921875 65.6953125 C-30.11678071 65.78813925 -39.02818659 63.36209976 -47.51171875 55.671875 C-54.41349862 48.28343116 -57.1877224 40.63578535 -56.96484375 30.58984375 C-56.95203369 29.71102539 -56.93922363 28.83220703 -56.92602539 27.92675781 C-56.62219875 18.21512404 -54.11710948 11.38829864 -47.37890625 4.27734375 C-34.1893488 -7.7816802 -15.24978978 -9.11120562 0 0 Z " fill="#7CB50C" transform="translate(468.46484375,32.47265625)"/>
<path d="M0 0 C14 0 14 0 18.1875 2.6875 C19.50550831 4.08187359 20.77049063 5.52699955 22 7 C22.89180633 8.01557412 23.78514654 9.02980252 24.6796875 10.04296875 C30.02159622 16.17934758 35.02905262 22.56104283 40 29 C40.00410889 28.29915283 40.00821777 27.59830566 40.01245117 26.8762207 C40.04543372 23.68746795 40.11608332 20.50061395 40.1875 17.3125 C40.19330078 16.20970703 40.19910156 15.10691406 40.20507812 13.97070312 C40.23408203 12.90400391 40.26308594 11.83730469 40.29296875 10.73828125 C40.31653442 9.26935425 40.31653442 9.26935425 40.34057617 7.77075195 C41.26800567 3.87389992 42.88287858 2.48175085 46 0 C48.8387401 -0.36771245 51.01820151 -0.48630804 53.8125 -0.3125 C54.50537109 -0.28994141 55.19824219 -0.26738281 55.91210938 -0.24414062 C57.60901573 -0.18562661 59.30479861 -0.0959548 61 0 C61.04635629 8.01469833 61.08188589 16.02934057 61.10362434 24.04413986 C61.11405811 27.7658029 61.12820982 31.48737416 61.15087891 35.20898438 C61.1726219 38.80106762 61.18457169 42.39306263 61.18975449 45.9852066 C61.19344764 47.35512938 61.20065945 48.72504738 61.21146011 50.09493256 C61.22599349 52.01473779 61.22681708 53.93463196 61.22705078 55.85449219 C61.231492 56.94703308 61.23593323 58.03957397 61.24050903 59.16522217 C60.99973057 62.00317562 60.52615726 63.62237968 59 66 C55.99404359 68.31227417 52.73285921 68.4371824 49.00390625 68.29296875 C41.65201212 67.21813043 37.56601164 60.02824608 33.30761719 54.63085938 C30.91067898 51.64139947 28.42020918 48.7307581 25.9375 45.8125 C25.20333862 44.94733765 25.20333862 44.94733765 24.4543457 44.06469727 C23.30375824 42.70906684 22.15201125 41.3544207 21 40 C20.9906543 40.67579102 20.98130859 41.35158203 20.97167969 42.04785156 C20.91792699 45.1159711 20.83429008 48.18257387 20.75 51.25 C20.72873047 52.84521484 20.72873047 52.84521484 20.70703125 54.47265625 C20.67480469 55.49746094 20.64257812 56.52226563 20.609375 57.578125 C20.5779541 58.99206543 20.5779541 58.99206543 20.54589844 60.43457031 C19.8501289 63.70431374 18.54362585 64.89915787 16 67 C11.22041378 69.38979311 5.34373985 68 0 68 C0 45.56 0 23.12 0 0 Z " fill="#4F4F4F" transform="translate(179,29)"/>
<path d="M0 0 C1.59375 1.28125 1.59375 1.28125 3.59375 4.28125 C3.51470781 8.54952848 2.94931477 10.7792762 0.46875 14.28125 C-2.40625 16.28125 -2.40625 16.28125 -5.65625 16.28125 C-8.43436289 15.5404199 -10.97460117 14.71000234 -13.65625 13.71875 C-20.08346838 11.48845029 -26.42774039 11.32387191 -32.90625 13.40625 C-37.39291952 16.77125214 -38.48996064 20.72964108 -39.28125 26.09375 C-39.74566177 32.50843763 -38.46255743 37.78875614 -34.34375 42.78125 C-28.43025701 45.80090599 -21.80265024 45.7961869 -15.40625 44.28125 C-15.40625 42.30125 -15.40625 40.32125 -15.40625 38.28125 C-16.64375 38.36375 -17.88125 38.44625 -19.15625 38.53125 C-21.265625 38.671875 -21.265625 38.671875 -23.40625 38.28125 C-24.72625 36.96125 -26.04625 35.64125 -27.40625 34.28125 C-27.40625 30.32125 -27.40625 26.36125 -27.40625 22.28125 C-17.17625 22.28125 -6.94625 22.28125 3.59375 22.28125 C3.7175 27.251875 3.84125 32.2225 3.96875 37.34375 C4.02337402 38.89843994 4.07799805 40.45312988 4.13427734 42.05493164 C4.27200515 53.46338457 4.27200515 53.46338457 0.8203125 57.66015625 C-6.16402673 64.32823608 -16.77698894 64.652227 -25.890625 64.55859375 C-35.0320265 63.83743874 -43.91983207 60.96018718 -50.40625 54.28125 C-58.99239362 43.71519655 -60.50289188 33.51137908 -59.40625 20.28125 C-58.1511498 12.21920996 -53.46930291 5.62943902 -47.23046875 0.48828125 C-45.01364409 -1.0623474 -42.77850387 -2.42025314 -40.40625 -3.71875 C-39.81585938 -4.0590625 -39.22546875 -4.399375 -38.6171875 -4.75 C-26.56938298 -10.4819951 -10.687558 -6.83302888 0 0 Z " fill="#4F4F4F" transform="translate(306.40625,33.71875)"/>
<path d="M0 0 C3.31964995 0.47343055 5.44205828 1.5523472 8.30078125 3.328125 C9.85454354 5.74185091 11.02278694 7.86518492 12.1796875 10.453125 C12.51303604 11.15888672 12.84638458 11.86464844 13.18983459 12.59179688 C13.8905405 14.0811371 14.58292736 15.57441663 15.26739502 17.07128906 C16.26847914 19.25757968 17.2934645 21.43075789 18.32763672 23.6015625 C19.99878427 27.12023818 21.63642342 30.65308266 23.25805664 34.19482422 C23.91916223 35.63361392 24.58529735 37.07010185 25.25610352 38.50439453 C26.24928816 40.62831477 27.22771562 42.75849332 28.203125 44.890625 C28.64989845 45.83615234 28.64989845 45.83615234 29.10569763 46.80078125 C31.17863761 51.39695137 31.98900068 55.34488141 32.30078125 60.328125 C30.75202103 63.99624131 28.83862968 66.46092722 25.30078125 68.328125 C21.1898532 68.85133403 19.0662109 68.78738279 15.48828125 66.640625 C12.38500732 63.36002113 11.30078125 60.83148442 11.30078125 56.328125 C4.37078125 56.328125 -2.55921875 56.328125 -9.69921875 56.328125 C-10.68921875 59.298125 -11.67921875 62.268125 -12.69921875 65.328125 C-15.19954803 68.38408301 -16.65310196 68.3222689 -20.63671875 68.828125 C-24.15248995 68.71005806 -24.70249498 68.32547613 -27.63671875 65.953125 C-30.86871387 61.83967666 -31.00037779 59.57101464 -30.69921875 54.328125 C-29.68041992 51.25219727 -29.68041992 51.25219727 -28.2421875 48.14453125 C-27.71141602 46.98018555 -27.18064453 45.81583984 -26.63378906 44.61621094 C-26.05174003 43.37420469 -25.46937665 42.13234572 -24.88671875 40.890625 C-24.29666572 39.60894371 -23.70781156 38.32670985 -23.12011719 37.04394531 C-21.91748973 34.42401888 -20.70761593 31.80763207 -19.49169922 29.19384766 C-17.78080019 25.51224941 -16.09825125 21.81854567 -14.421875 18.12109375 C-10.37041848 9.20009189 -10.37041848 9.20009189 -8.74609375 5.65625 C-8.37323242 4.8405957 -8.00037109 4.02494141 -7.61621094 3.18457031 C-5.82075977 -0.45031005 -3.89170667 0.15113424 0 0 Z " fill="#4F4F4F" transform="translate(139.69921875,28.671875)"/>
<path d="M0 0 C3.33180762 2.50723552 4.70615494 4.22723384 6.12890625 8.2109375 C5.87890625 11.7109375 5.87890625 11.7109375 3.94140625 15.1484375 C0.75636547 17.81347162 -0.76820439 18.42301492 -4.88671875 18.12109375 C-8.22290595 17.50868176 -11.37787478 16.43052427 -14.6015625 15.390625 C-19.82392079 13.98180276 -24.32866064 14.10218663 -29.43359375 15.8359375 C-32.71589643 18.12591611 -34.88612632 19.89439974 -36.12109375 23.7109375 C-36.89468261 31.03830164 -37.08643658 37.29614047 -33.12109375 43.7109375 C-31.62441488 45.21567263 -31.62441488 45.21567263 -29.87109375 46.0859375 C-29.05898437 46.56160156 -29.05898437 46.56160156 -28.23046875 47.046875 C-21.81244347 49.06736444 -15.70703136 46.95484284 -9.55078125 45.04492188 C-5.70394768 43.92161494 -2.96153189 43.43767396 0.87890625 44.7109375 C3.96455765 46.93946351 4.79083528 48.43118265 5.94140625 52.0859375 C5.875349 55.91725809 5.25792809 57.5920192 2.6015625 60.359375 C-5.87346095 67.00871312 -16.78493384 67.51575529 -27.12109375 66.7109375 C-36.8225346 64.87043558 -44.92979553 61.32944503 -50.93359375 53.28125 C-57.37203033 43.09737676 -58.45947627 32.67810035 -56.69140625 20.83203125 C-54.35276334 11.60738422 -48.47684793 4.78588985 -40.41015625 -0.0703125 C-28.66010278 -6.32631367 -11.64329804 -7.07603749 0 0 Z " fill="#505050" transform="translate(96.12109375,31.2890625)"/>
<path d="M0 0 C14.84615385 0 14.84615385 0 19 3 C20.21425817 5.42851635 20.13972676 7.00765793 20.16113281 9.72167969 C20.17074036 10.70320007 20.1803479 11.68472046 20.19024658 12.69598389 C20.19449646 13.76052795 20.19874634 14.82507202 20.203125 15.921875 C20.20882507 17.01461731 20.21452515 18.10735962 20.22039795 19.23321533 C20.22985792 21.54999826 20.23638587 23.8667947 20.24023438 26.18359375 C20.24992222 29.72159484 20.28092954 33.25901078 20.3125 36.796875 C20.31903172 39.04687155 20.32428153 41.29687225 20.328125 43.546875 C20.3404718 44.60332214 20.3528186 45.65976929 20.36553955 46.74822998 C20.34396403 53.8952286 19.53754391 58.40203838 14.375 63.6875 C8.17726115 68.43144825 0.65387409 69.95031323 -7 69 C-13.95110415 67.54658731 -19.62695514 65.25673297 -24.8125 60.25 C-26.56375786 56.93182722 -27.14128208 53.74769308 -27 50 C-25.66048669 47.00204165 -24.9444025 45.47220125 -22 44 C-18.26899523 43.52536332 -14.71952537 43.40077313 -11 44 C-8.82000585 45.75938351 -7.64248342 47.68119988 -6 50 C-4.35 50 -2.7 50 -1 50 C-0.67 33.5 -0.34 17 0 0 Z " fill="#7CB50C" transform="translate(384,29)"/>
<path d="M0 0 C1.26328125 0.01804687 2.5265625 0.03609375 3.828125 0.0546875 C4.79234375 0.07789062 5.7565625 0.10109375 6.75 0.125 C6.86596849 8.25273421 6.95475177 16.38012148 7.00906086 24.50847912 C7.03512982 28.2830501 7.07047629 32.05705414 7.12719727 35.83129883 C7.18161681 39.47530481 7.21144086 43.11876631 7.22438622 46.76314735 C7.23360857 48.15185427 7.25161853 49.54053215 7.27865028 50.92900658 C7.31506071 52.87709744 7.31704339 54.82573891 7.31762695 56.77416992 C7.32873001 57.8822551 7.33983307 58.99034027 7.35127258 60.13200378 C6.52322965 64.25381052 5.14562709 65.68407554 1.75 68.125 C-1.0887401 68.49271245 -3.26820151 68.61130804 -6.0625 68.4375 C-6.75537109 68.41494141 -7.44824219 68.39238281 -8.16210938 68.36914062 C-9.85901573 68.31062661 -11.55479861 68.2209548 -13.25 68.125 C-13.29635629 60.11030167 -13.33188589 52.09565943 -13.35362434 44.08086014 C-13.36405811 40.3591971 -13.37820982 36.63762584 -13.40087891 32.91601562 C-13.4226219 29.32393238 -13.43457169 25.73193737 -13.43975449 22.1397934 C-13.44344764 20.76987062 -13.45065945 19.39995262 -13.46146011 18.03006744 C-13.47599349 16.11026221 -13.47681708 14.19036804 -13.47705078 12.27050781 C-13.481492 11.17796692 -13.48593323 10.08542603 -13.49050903 8.95977783 C-13.24534143 6.07009145 -12.92142398 4.47956359 -11.25 2.125 C-7.76930901 -0.46112088 -4.20292193 -0.07783189 0 0 Z " fill="#7CB50A" transform="translate(343.25,28.875)"/>
<path d="M0 0 C4.44494931 2.99775651 7.27347479 6.62774089 8.6875 11.8125 C9.50948258 18.3011807 8.55666726 23.46821272 4.6875 28.8125 C0.55734847 32.6476407 -3.36990314 33.57243012 -8.84765625 33.91015625 C-13.85749118 33.71166834 -17.08488373 32.07329509 -20.625 28.4375 C-24.18215289 22.90415106 -25.01679636 18.31885683 -24.3125 11.8125 C-22.54810844 5.93119479 -20.1792122 3.25975448 -15.3125 -0.1875 C-10.1060264 -1.9229912 -5.16315911 -1.85094383 0 0 Z " fill="#FCFDFB" transform="translate(533.3125,46.1875)"/>
<path d="M0 0 C4.3305741 2.26392268 6.82907696 4.96171272 8.92578125 9.31640625 C10.29649702 14.95052072 10.47277482 20.14637114 8.0546875 25.4921875 C5.42066441 29.74855007 2.36306081 32.62004066 -2.5078125 34.01171875 C-8.09701313 34.81139129 -12.14973499 34.30971991 -17.07421875 31.31640625 C-20.67059588 27.88817143 -22.86803604 24.65877706 -23.3125 19.609375 C-23.46258877 13.32934506 -23.54838159 9.15333905 -19.07421875 4.31640625 C-13.29663616 -0.77336889 -7.5906975 -2.5016423 0 0 Z " fill="#FCFDFB" transform="translate(454.07421875,45.68359375)"/>
<path d="M0 0 C3.30264161 1.31035983 6.22964535 2.7766461 8.17578125 5.8671875 C9.60412419 9.56327872 9.55337905 13.10610105 9 17 C6.9087445 21.10782331 5.23264925 23.26810866 1 25 C-2.93543314 25.75653428 -6.46336719 25.74978558 -10.10546875 23.97265625 C-13.69345545 21.30201048 -15.41696984 18.95155134 -16.125 14.5 C-16.2601723 10.26697261 -15.51943224 7.49469633 -13 4 C-8.68847354 0.27640896 -5.65818676 -0.79413148 0 0 Z " fill="#555555" transform="translate(274,108)"/>
<path d="M0 0 C2.23046875 -0.28125 2.23046875 -0.28125 5 0 C7.23828125 1.96875 7.23828125 1.96875 9.3125 4.5 C10.00988281 5.3353125 10.70726562 6.170625 11.42578125 7.03125 C11.94527344 7.6809375 12.46476563 8.330625 13 9 C13.144375 7.700625 13.28875 6.40125 13.4375 5.0625 C13.875 1.125 13.875 1.125 15 0 C17.5 -0.125 17.5 -0.125 20 0 C22.35955511 2.35955511 21.18542405 8.26752826 21.1875 11.4375 C21.19974609 12.41783203 21.21199219 13.39816406 21.22460938 14.40820312 C21.22750977 15.81295898 21.22750977 15.81295898 21.23046875 17.24609375 C21.23457764 18.10904053 21.23868652 18.9719873 21.24291992 19.86108398 C21 22 21 22 19 24 C16.04132636 24.08218538 14.49265541 23.46367568 12.33984375 21.4375 C8 16.51285461 8 16.51285461 8 14 C7.34 14 6.68 14 6 14 C6 16.97 6 19.94 6 23 C3.625 23.625 3.625 23.625 1 24 C-1 22 -1 22 -1.24291992 19.96875 C-1.23881104 19.1540625 -1.23470215 18.339375 -1.23046875 17.5 C-1.22853516 16.613125 -1.22660156 15.72625 -1.22460938 14.8125 C-1.21236328 13.884375 -1.20011719 12.95625 -1.1875 12 C-1.18685547 11.071875 -1.18621094 10.14375 -1.18554688 9.1875 C-1.14037187 2.28074374 -1.14037187 2.28074374 0 0 Z " fill="#565656" transform="translate(194,109)"/>
<path d="M0 0 C3.48339238 0.39664906 4.30272691 1.50369287 6.48828125 4.1796875 C7.09285156 4.89898437 7.69742187 5.61828125 8.3203125 6.359375 C9.67578125 8.3046875 9.67578125 8.3046875 9.67578125 10.3046875 C10.33578125 10.3046875 10.99578125 10.3046875 11.67578125 10.3046875 C11.67578125 7.3346875 11.67578125 4.3646875 11.67578125 1.3046875 C14.05078125 0.6796875 14.05078125 0.6796875 16.67578125 0.3046875 C19.12565057 2.75455682 18.93209436 3.4417655 18.94140625 6.8046875 C18.94527344 8.135 18.94527344 8.135 18.94921875 9.4921875 C18.94148438 10.4203125 18.93375 11.3484375 18.92578125 12.3046875 C18.93351562 13.2328125 18.94125 14.1609375 18.94921875 15.1171875 C18.94664062 16.0040625 18.9440625 16.8909375 18.94140625 17.8046875 C18.93915039 18.619375 18.93689453 19.4340625 18.93457031 20.2734375 C18.67578125 22.3046875 18.67578125 22.3046875 16.67578125 24.3046875 C13.48146221 24.14261894 12.03018208 23.62892655 9.65625 21.45703125 C9.06457031 20.72613281 8.47289062 19.99523437 7.86328125 19.2421875 C7.25871094 18.50871094 6.65414063 17.77523437 6.03125 17.01953125 C5.58394531 16.45363281 5.13664062 15.88773438 4.67578125 15.3046875 C4.34578125 17.9446875 4.01578125 20.5846875 3.67578125 23.3046875 C1.30078125 23.9296875 1.30078125 23.9296875 -1.32421875 24.3046875 C-3.32421875 22.3046875 -3.32421875 22.3046875 -3.56713867 20.16577148 C-3.56302979 19.30282471 -3.5589209 18.43987793 -3.5546875 17.55078125 C-3.55275391 16.61427734 -3.55082031 15.67777344 -3.54882812 14.71289062 C-3.53658203 13.73255859 -3.52433594 12.75222656 -3.51171875 11.7421875 C-3.51107422 10.75798828 -3.51042969 9.77378906 -3.50976562 8.75976562 C-3.45824409 0.45334965 -3.45824409 0.45334965 0 0 Z " fill="#555555" transform="translate(298.32421875,108.6953125)"/>
<path d="M0 0 C4.43826376 0.02110946 5.78608654 0.02933899 9.4375 2.75 C12.78628351 7.59996233 12.76144472 11.57558219 12.25 17.375 C11.01249113 20.34502129 10.19407123 21.77575657 7.49609375 23.48828125 C4.72849588 24.58088076 2.530476 24.60608843 -0.4375 24.5625 C-1.41074219 24.55605469 -2.38398438 24.54960937 -3.38671875 24.54296875 C-5.75 24.375 -5.75 24.375 -6.75 23.375 C-6.8491657 21.75242456 -6.88079777 20.12560169 -6.8828125 18.5 C-6.88410156 17.51515625 -6.88539063 16.5303125 -6.88671875 15.515625 C-6.88285156 14.47921875 -6.87898437 13.4428125 -6.875 12.375 C-6.88080078 10.82039063 -6.88080078 10.82039063 -6.88671875 9.234375 C-6.88542969 8.24953125 -6.88414062 7.2646875 -6.8828125 6.25 C-6.88168457 5.33992188 -6.88055664 4.42984375 -6.87939453 3.4921875 C-6.61822213 -0.7811844 -3.67738256 0.11659993 0 0 Z " fill="#535353" transform="translate(233.75,108.625)"/>
<path d="M0 0 C1.9309082 0.22363281 1.9309082 0.22363281 4 1 C5.17260742 2.50292969 5.17260742 2.50292969 6.10546875 4.421875 C6.44900391 5.11796875 6.79253906 5.8140625 7.14648438 6.53125 C7.49001953 7.2634375 7.83355469 7.995625 8.1875 8.75 C8.54263672 9.46671875 8.89777344 10.1834375 9.26367188 10.921875 C12.74824892 18.11584052 12.74824892 18.11584052 13 22 C12.34 22.66 11.68 23.32 11 24 C8.375 23.625 8.375 23.625 6 23 C6 22.01 6 21.02 6 20 C4.72125 20.103125 3.4425 20.20625 2.125 20.3125 C1.40570313 20.37050781 0.68640625 20.42851562 -0.0546875 20.48828125 C-2.39519216 20.87393036 -2.39519216 20.87393036 -4 24 C-5.65 23.67 -7.3 23.34 -9 23 C-9.57028166 17.25192292 -7.68255124 13.60961335 -5.0625 8.6875 C-4.68931641 7.95982422 -4.31613281 7.23214844 -3.93164062 6.48242188 C-1.19866071 1.19866071 -1.19866071 1.19866071 0 0 Z " fill="#585858" transform="translate(413,109)"/>
<path d="M0 0 C0.66 0.33 1.32 0.66 2 1 C2 2.65 2 4.3 2 6 C-0.97 5.67 -3.94 5.34 -7 5 C-7 5.99 -7 6.98 -7 8 C-5.906875 8.268125 -4.81375 8.53625 -3.6875 8.8125 C1.46501129 10.4717833 1.46501129 10.4717833 3 13 C3.69583813 17.00106924 3.33463357 18.51896425 1 21.875 C-2.38632892 24.27364965 -4.03436573 24.61912935 -8.0625 24.375 C-10.80271804 23.84463522 -12.78568011 22.66073991 -15 21 C-14.67 19.35 -14.34 17.7 -14 16 C-10.37 16.66 -6.74 17.32 -3 18 C-3 17.01 -3 16.02 -3 15 C-3.63808594 14.79503906 -4.27617187 14.59007813 -4.93359375 14.37890625 C-5.75988281 14.10949219 -6.58617187 13.84007813 -7.4375 13.5625 C-8.26121094 13.29566406 -9.08492188 13.02882813 -9.93359375 12.75390625 C-12 12 -12 12 -13 11 C-13.69881711 3.89535942 -13.69881711 3.89535942 -11 0.4375 C-6.79138222 -1.57912935 -4.53560682 -0.96660473 0 0 Z " fill="#575757" transform="translate(370,109)"/>
<path d="M0 0 C1.65322266 0.01740234 1.65322266 0.01740234 3.33984375 0.03515625 C4.99693359 0.04869141 4.99693359 0.04869141 6.6875 0.0625 C7.54214844 0.07410156 8.39679688 0.08570312 9.27734375 0.09765625 C9.65953142 1.75380282 9.99129477 3.42222649 10.27734375 5.09765625 C9.27734375 6.09765625 9.27734375 6.09765625 6.21484375 6.16015625 C5.24546875 6.13953125 4.27609375 6.11890625 3.27734375 6.09765625 C3.27734375 7.08765625 3.27734375 8.07765625 3.27734375 9.09765625 C5.25734375 9.09765625 7.23734375 9.09765625 9.27734375 9.09765625 C9.32006475 10.7637753 9.31798207 12.4314851 9.27734375 14.09765625 C8.27734375 15.09765625 8.27734375 15.09765625 5.71484375 15.16015625 C4.91046875 15.13953125 4.10609375 15.11890625 3.27734375 15.09765625 C3.27734375 16.08765625 3.27734375 17.07765625 3.27734375 18.09765625 C5.25734375 18.09765625 7.23734375 18.09765625 9.27734375 18.09765625 C9.65953142 19.75380282 9.99129477 21.42222649 10.27734375 23.09765625 C9.27734375 24.09765625 9.27734375 24.09765625 6.58984375 24.23046875 C5.49671875 24.22789062 4.40359375 24.2253125 3.27734375 24.22265625 C2.18421875 24.22523438 1.09109375 24.2278125 -0.03515625 24.23046875 C-2.72265625 24.09765625 -2.72265625 24.09765625 -3.72265625 23.09765625 C-3.82182195 21.47508081 -3.85345402 19.84825794 -3.85546875 18.22265625 C-3.85675781 17.2378125 -3.85804688 16.25296875 -3.859375 15.23828125 C-3.85550781 14.201875 -3.85164063 13.16546875 -3.84765625 12.09765625 C-3.85345703 10.54304688 -3.85345703 10.54304688 -3.859375 8.95703125 C-3.85808594 7.9721875 -3.85679687 6.98734375 -3.85546875 5.97265625 C-3.85434082 5.06257813 -3.85321289 4.1525 -3.85205078 3.21484375 C-3.65511576 -0.00745916 -3.26421501 0.11708088 0 0 Z " fill="#555555" transform="translate(332.72265625,108.90234375)"/>
<path d="M0 0 C2.5 0.125 2.5 0.125 3.5 1.125 C3.58700342 2.75972882 3.60701063 4.39814055 3.59765625 6.03515625 C3.59443359 7.02451172 3.59121094 8.01386719 3.58789062 9.03320312 C3.57951172 10.07412109 3.57113281 11.11503906 3.5625 12.1875 C3.55798828 13.23228516 3.55347656 14.27707031 3.54882812 15.35351562 C3.53699913 17.9440666 3.52051689 20.53450559 3.5 23.125 C1.125 23.75 1.125 23.75 -1.5 24.125 C-3.5 22.125 -3.5 22.125 -3.74291992 19.98608398 C-3.73881104 19.12313721 -3.73470215 18.26019043 -3.73046875 17.37109375 C-3.72853516 16.43458984 -3.72660156 15.49808594 -3.72460938 14.53320312 C-3.71236328 13.55287109 -3.70011719 12.57253906 -3.6875 11.5625 C-3.68685547 10.57830078 -3.68621094 9.59410156 -3.68554688 8.58007812 C-3.63345477 0.18167274 -3.63345477 0.18167274 0 0 Z " fill="#555555" transform="translate(177.5,108.875)"/>
<path d="M0 0 C1.2065625 0.0309375 1.2065625 0.0309375 2.4375 0.0625 C4.26421197 3.71592394 3.62220722 8.04089159 3.625 12.0625 C3.63724609 12.990625 3.64949219 13.91875 3.66210938 14.875 C3.66404297 15.761875 3.66597656 16.64875 3.66796875 17.5625 C3.67207764 18.3771875 3.67618652 19.191875 3.68041992 20.03125 C3.4375 22.0625 3.4375 22.0625 1.4375 24.0625 C-1.1875 23.6875 -1.1875 23.6875 -3.5625 23.0625 C-3.59137512 19.41668313 -3.60925585 15.77089537 -3.625 12.125 C-3.63337891 11.08408203 -3.64175781 10.04316406 -3.65039062 8.97070312 C-3.65522461 7.48666992 -3.65522461 7.48666992 -3.66015625 5.97265625 C-3.66539307 5.05621338 -3.67062988 4.13977051 -3.67602539 3.19555664 C-3.50837054 0.0454482 -3.17507352 0.07744082 0 0 Z " fill="#565656" transform="translate(388.5625,108.9375)"/>
<path d="M0 0 C3.5625 0.1875 3.5625 0.1875 5.5625 2.1875 C6.11666667 8.28333333 6.11666667 8.28333333 4.375 11.125 C1.87469126 12.59069823 0.41119344 12.68602135 -2.4375 12.1875 C-4.3125 10.625 -4.3125 10.625 -5.4375 8.1875 C-4.90053743 0.26730204 -4.90053743 0.26730204 0 0 Z " fill="#F8F8F8" transform="translate(270.4375,114.8125)"/>
<path d="M0 0 C2.475 0.495 2.475 0.495 5 1 C6.52846661 4.05693322 6.23242445 6.62984547 6 10 C4.6875 12.4375 4.6875 12.4375 3 14 C2.01 14 1.02 14 0 14 C0 9.38 0 4.76 0 0 Z " fill="#F7F7F7" transform="translate(234,114)"/>
<path d="M0 0 C2.44839588 3.67259383 4 6.54648201 4 11 C1.36 11 -1.28 11 -4 11 C-3.52269162 9.5410574 -3.04308958 8.08286504 -2.5625 6.625 C-2.29566406 5.81289063 -2.02882812 5.00078125 -1.75390625 4.1640625 C-1 2 -1 2 0 0 Z " fill="#ECECEC" transform="translate(140,58)"/>
</svg>
