<?xml version="1.0" encoding="UTF-8"?>
<svg version="1.1" xmlns="http://www.w3.org/2000/svg" width="1363" height="1363">
<path d="M0 0 C449.79 0 899.58 0 1363 0 C1363 449.79 1363 899.58 1363 1363 C913.21 1363 463.42 1363 0 1363 C0 913.21 0 463.42 0 0 Z " fill="#FEFEFE" transform="translate(0,0)"/>
<path d="M0 0 C0.99515625 0.23589844 1.9903125 0.47179687 3.015625 0.71484375 C11.24089292 2.79578728 19.10111677 5.93757225 27 9 C23.86077853 17.45639264 20.43254428 25.69301123 16.66638184 33.89019775 C15.14395222 37.20613433 13.63611753 40.52868673 12.12890625 43.8515625 C11.80526093 44.56492767 11.4816156 45.27829285 11.14816284 46.01327515 C6.77186712 55.6830828 2.51330825 65.40499612 -1.75 75.125 C-2.14762543 76.03052612 -2.54525085 76.93605225 -2.95492554 77.86901855 C-4.09085242 80.45646475 -5.22543702 83.04449413 -6.359375 85.6328125 C-6.86785728 86.79180557 -6.86785728 86.79180557 -7.38661194 87.97421265 C-8.98434167 91.62770344 -10.54853888 95.28510361 -12 99 C-12.54785156 98.81824219 -13.09570312 98.63648438 -13.66015625 98.44921875 C-16.42538696 97.57243828 -19.20492197 96.77660491 -22 96 C-23.01964844 95.71382812 -24.03929687 95.42765625 -25.08984375 95.1328125 C-53.06234268 88.40403269 -81.74652991 93.8984317 -106.171875 108.515625 C-128.96555865 122.86210262 -144.10298924 145.95937893 -151.2734375 171.5859375 C-155.10214835 189.5767616 -155.22012677 210.61060534 -149 228 C-148.78037598 228.63147949 -148.56075195 229.26295898 -148.33447266 229.91357422 C-143.68943288 243.09260075 -137.005568 254.32812109 -128 265 C-127.55527344 265.59039063 -127.11054687 266.18078125 -126.65234375 266.7890625 C-111.81394275 285.93831395 -85.36732167 296.82101196 -62 300 C-58.07811601 300.27928166 -54.1808936 300.33480565 -50.25 300.3125 C-49.19941406 300.30686035 -48.14882813 300.3012207 -47.06640625 300.29541016 C-23.30614415 299.9264393 0.12564241 290.67871851 18 275 C18.74507812 274.39800781 19.49015625 273.79601562 20.2578125 273.17578125 C36.51806146 259.6633444 48.56336736 237.86702581 52 217 C52.08817531 214.94915732 52.1246521 212.89578543 52.12457275 210.8430481 C52.12713577 209.60414322 52.12969879 208.36523834 52.13233948 207.08879089 C52.13026968 205.72341911 52.12814693 204.35804741 52.12597656 202.99267578 C52.1273723 201.54831385 52.12927224 200.10395234 52.13163757 198.65959167 C52.13612828 195.55160315 52.13799052 192.44362782 52.13809967 189.33563614 C52.13924362 184.40795831 52.15211063 179.48035481 52.16766357 174.55270386 C52.17023643 173.71938856 52.17280928 172.88607327 52.1754601 172.02750599 C52.18072676 170.32341888 52.18601225 168.61933182 52.19131613 166.91524482 C52.22634089 155.44901904 52.25298624 143.98288534 52.25048828 132.51660156 C52.24889257 124.77558465 52.26510332 117.03482171 52.30119491 109.29388607 C52.31954451 105.20489923 52.32909546 101.11633576 52.31671906 97.02731705 C52.30516042 93.17091492 52.31726551 89.31526626 52.34635353 85.45896339 C52.35291583 84.05589845 52.35126437 82.65276276 52.34005547 81.24972725 C52.19334948 61.19679124 60.7196888 43.76654736 74 29 C74.55751953 28.36102783 75.11503906 27.72205566 75.68945312 27.0637207 C79.46968898 23.20708203 82.1440458 21.55988677 87.609375 21.38671875 C89.65754984 21.45548837 91.70483798 21.5568795 93.75 21.6875 C95.90086627 21.75103656 98.05192406 21.80841343 100.203125 21.859375 C101.21697266 21.88966797 102.23082031 21.91996094 103.27539062 21.95117188 C115.45364857 22.16942023 128.0496045 17.45982251 137.85546875 10.26953125 C141 8 141 8 143 8 C143.06868136 37.27428085 143.12165393 66.54855591 143.15319599 95.82290107 C143.15694737 99.29192767 143.16083041 102.76095411 143.16479492 106.22998047 C143.16558185 106.92049826 143.16636878 107.61101605 143.16717956 108.32245862 C143.18017506 119.45132846 143.20379596 130.58015102 143.23145839 141.70899296 C143.25967676 153.15839412 143.27598663 164.6077623 143.28226548 176.05719757 C143.28615231 182.47545493 143.29518865 188.89360567 143.31719017 195.31182861 C143.33779472 201.37255126 143.3437862 207.43312497 143.33932304 213.49387932 C143.34013766 215.69946036 143.34595869 217.90504723 143.35761642 220.11059761 C143.59134264 266.67685547 128.92908927 301.99696687 97 336 C96.50790039 336.52609863 96.01580078 337.05219727 95.50878906 337.59423828 C82.99259584 350.86538866 68.93978241 362.06893661 53 371 C52.27425781 371.41459473 51.54851562 371.82918945 50.80078125 372.25634766 C20.61383512 389.36269417 -14.11952337 399.46691323 -48.9375 399.3125 C-49.6070874 399.31034485 -50.2766748 399.3081897 -50.96655273 399.30596924 C-92.05828942 399.09562273 -133.72672747 386.57850497 -167 362 C-168.03769531 361.24460937 -169.07539062 360.48921875 -170.14453125 359.7109375 C-177.73654013 354.0853426 -184.73378297 347.91270699 -191.55566406 341.38134766 C-192.83801618 340.15491961 -194.13297661 338.94170513 -195.4296875 337.73046875 C-202.02372959 331.40628959 -207.52740848 324.28950065 -213 317 C-213.62777344 316.16726563 -214.25554687 315.33453125 -214.90234375 314.4765625 C-229.56445271 294.26010167 -239.08734605 271.87733308 -246 248 C-246.49113281 246.34097656 -246.49113281 246.34097656 -246.9921875 244.6484375 C-251.35582711 228.67841626 -252.61598142 212.17338755 -252.5625 195.6875 C-252.56234894 194.78601227 -252.56219788 193.88452454 -252.56204224 192.95571899 C-252.50573764 175.70622756 -250.45823396 159.7014426 -246 143 C-245.74331543 142.0291748 -245.48663086 141.05834961 -245.22216797 140.05810547 C-236.45621652 108.23278463 -218.6978643 79.6686947 -196 56 C-195.49597656 55.46874512 -194.99195313 54.93749023 -194.47265625 54.39013672 C-144.57937269 2.02396286 -69.52055757 -17.03078986 0 0 Z " fill="#4D4D4D" transform="translate(723,542)"/>
<path d="M0 0 C0.06868136 29.27428085 0.12165393 58.54855591 0.15319599 87.82290107 C0.15694737 91.29192767 0.16083041 94.76095411 0.16479492 98.22998047 C0.16558185 98.92049826 0.16636878 99.61101605 0.16717956 100.32245862 C0.18017506 111.45132846 0.20379596 122.58015102 0.23145839 133.70899296 C0.25967676 145.15839412 0.27598663 156.6077623 0.28226548 168.05719757 C0.28615231 174.47545493 0.29518865 180.89360567 0.31719017 187.31182861 C0.33779472 193.37255126 0.3437862 199.43312497 0.33932304 205.49387932 C0.34013766 207.69946036 0.34595869 209.90504723 0.35761642 212.11059761 C0.59134264 258.67685547 -14.07091073 293.99696687 -46 328 C-46.49209961 328.52609863 -46.98419922 329.05219727 -47.49121094 329.59423828 C-59.25341022 342.06591499 -72.80243438 353.85315683 -88 362 C-88.66 362 -89.32 362 -90 362 C-90.711444 285.74753865 -91.23941796 209.49306385 -90.90289849 133.2371344 C-90.87880074 127.52190375 -90.86755463 121.80673717 -90.86184692 116.09146118 C-90.85456088 109.11641977 -90.82931361 102.14172125 -90.7810486 95.16683823 C-90.75682696 91.61848877 -90.73988384 88.0705514 -90.74425697 84.52211189 C-90.76620901 57.23505279 -90.76620901 57.23505279 -85 45 C-84.5338327 44.00088593 -84.06766541 43.00177185 -83.58737183 41.97238159 C-79.86324582 34.38497073 -74.64439111 27.27607045 -69 21 C-68.44248047 20.36102783 -67.88496094 19.72205566 -67.31054688 19.0637207 C-63.53031102 15.20708203 -60.8559542 13.55988677 -55.390625 13.38671875 C-53.34245016 13.45548837 -51.29516202 13.5568795 -49.25 13.6875 C-47.09913373 13.75103656 -44.94807594 13.80841343 -42.796875 13.859375 C-41.78302734 13.88966797 -40.76917969 13.91996094 -39.72460938 13.95117188 C-27.54635143 14.16942023 -14.9503955 9.45982251 -5.14453125 2.26953125 C-2 0 -2 0 0 0 Z " fill="#84BF09" transform="translate(866,550)"/>
<path d="M0 0 C12.99979986 9.0314399 23.38177437 22.63337323 26.8046875 38.34765625 C29.15423519 56.42771225 25.16178447 73.8933566 14 88.4375 C4.73201374 99.28073804 -9.37982726 108.43200736 -23.875 109.8125 C-41.86662251 110.97324984 -57.4622832 106.80004465 -71.4921875 95.03515625 C-83.79995974 83.55462772 -90.61782906 68.7105944 -91.32836914 51.95922852 C-91.65700011 34.62781636 -85.62843138 20.70786043 -73.6875 8.0625 C-68.25657924 2.86157725 -62.64457653 -0.93951543 -55.875 -4.1875 C-54.99972656 -4.620625 -54.12445312 -5.05375 -53.22265625 -5.5 C-36.3533119 -12.47040341 -15.36769596 -9.04486429 0 0 Z " fill="#84C00A" transform="translate(852.875,443.1875)"/>
</svg>
