<?xml version="1.0" encoding="UTF-8"?>
<svg version="1.1" xmlns="http://www.w3.org/2000/svg" width="264" height="324">
<path d="M0 0 C2.30626009 1.43852009 4.44474557 2.97147064 6.5859375 4.64453125 C7.20210937 5.12277344 7.81828125 5.60101563 8.453125 6.09375 C15.14476597 11.99726437 20.96865902 22.64246472 21.76293945 31.65234375 C22.16931635 45.69258451 21.52984768 57.76472365 11.5859375 68.64453125 C10.73931549 69.21652756 9.89269348 69.78852386 9.02041626 70.37785339 C5.38049045 74.06132043 5.97671011 78.71542644 5.93370056 83.60809326 C5.94673691 84.98132746 5.9602256 86.35455743 5.97412109 87.7277832 C5.97057826 89.1803811 5.96479878 90.632975 5.95695496 92.08555603 C5.94478118 95.21173325 5.94823764 98.33736462 5.96378708 101.46352577 C5.98815805 106.42100424 5.97658307 111.37800783 5.96011353 116.335495 C5.93561231 125.08691007 5.94141162 133.83810903 5.95391846 142.58953857 C5.9724674 155.72222527 5.96742748 168.85486713 5.93388426 181.98752373 C5.9224666 186.89974337 5.92667912 191.81161322 5.94390464 196.7238127 C5.95189589 199.80459474 5.94749212 202.88527873 5.94019508 205.96605873 C5.93939599 207.37678708 5.9435912 208.78753031 5.95363808 210.19822311 C6.04116889 223.13333708 4.96961316 236.64398423 -1.0390625 248.33203125 C-1.56064941 249.38644409 -1.56064941 249.38644409 -2.09277344 250.4621582 C-5.57563185 257.30592839 -9.6775582 263.59415866 -14.4140625 269.64453125 C-14.86265625 270.21800293 -15.31125 270.79147461 -15.7734375 271.38232422 C-32.5144411 292.452303 -54.28782256 306.59984117 -80.0390625 314.39453125 C-80.69527588 314.59353027 -81.35148926 314.7925293 -82.02758789 314.99755859 C-93.06744115 318.15645066 -103.9616412 319.03515238 -115.4140625 319.01953125 C-116.09115265 319.01898743 -116.7682428 319.0184436 -117.46585083 319.0178833 C-151.15968475 318.89402166 -181.10328446 305.88904709 -205.4140625 282.64453125 C-206.08695313 282.03480469 -206.75984375 281.42507813 -207.453125 280.796875 C-229.07809973 260.50730708 -241.61390244 229.47956125 -242.79296875 200.19140625 C-243.65944181 162.56435262 -232.7847877 130.04359229 -206.72143555 102.55200195 C-199.93248077 95.60547385 -192.53834787 89.93498851 -184.4140625 84.64453125 C-183.4859375 84.020625 -182.5578125 83.39671875 -181.6015625 82.75390625 C-154.80225612 65.85207097 -120.03465352 61.07245737 -89.2265625 67.39453125 C-86.26550956 68.06913268 -83.33938758 68.83006213 -80.4140625 69.64453125 C-79.145625 69.9796875 -77.8771875 70.31484375 -76.5703125 70.66015625 C-70.63449753 72.4076158 -70.63449753 72.4076158 -68.4140625 73.64453125 C-66.99941452 77.3738763 -67.93825376 79.53462355 -69.53501892 83.12478638 C-70.0300869 84.19030228 -70.0300869 84.19030228 -70.53515625 85.27734375 C-70.87273453 86.02805145 -71.21031281 86.77875916 -71.55812073 87.55221558 C-72.6451339 89.96304823 -73.74791751 92.3662737 -74.8515625 94.76953125 C-75.56031944 96.33284657 -76.26801219 97.89664482 -76.97460938 99.4609375 C-78.39053781 102.59253162 -79.81222907 105.72141423 -81.23779297 108.84863281 C-84.68396223 116.42305619 -88.04624935 124.03503263 -91.4140625 131.64453125 C-101.4140625 129.64453125 -101.4140625 129.64453125 -103.6796875 129.09375 C-122.01918257 126.08083295 -139.11927741 130.3471439 -154.4296875 140.6796875 C-167.97441253 151.10307227 -176.69844827 165.76202335 -179.4140625 182.64453125 C-181.06296317 201.32481412 -177.01284012 217.95849278 -165.6015625 233.01953125 C-155.01042204 245.3927374 -139.58914885 254.4147721 -123.20214844 255.83642578 C-104.91221805 257.01320831 -88.16924612 252.99832447 -73.83886719 241.01049805 C-63.57532292 231.96441579 -54.65432667 219.40351356 -53.18461227 205.46910667 C-52.87556961 200.28948747 -52.87508084 195.1075825 -52.89764214 189.92028999 C-52.91041989 186.96240915 -52.89884784 184.00544155 -52.88160706 181.04759216 C-52.8550465 175.82972703 -52.84930582 170.61209045 -52.85070801 165.39416504 C-52.85294539 157.04905775 -52.83849072 148.70423366 -52.79512215 140.35923576 C-52.78538812 137.46732588 -52.79394584 134.57587472 -52.80381775 131.68397522 C-52.78252475 112.35404359 -49.30905796 97.92745805 -35.4140625 83.64453125 C-36.30867187 83.24363281 -37.20328125 82.84273438 -38.125 82.4296875 C-51.64772381 76.16649171 -60.39489028 68.68341688 -66.4140625 54.64453125 C-70.60416223 43.22040284 -69.05354276 30.64790036 -64.4140625 19.64453125 C-58.0900248 7.28463985 -49.2343227 0.02878053 -36.18359375 -4.46875 C-23.83521897 -7.37349723 -11.05221276 -6.20569228 0 0 Z " fill="#4C4D4C" transform="translate(242.4140625,5.35546875)"/>
<path d="M0 0 C2.30626009 1.43852009 4.44474557 2.97147064 6.5859375 4.64453125 C7.20210938 5.12277344 7.81828125 5.60101563 8.453125 6.09375 C15.14476597 11.99726437 20.96865902 22.64246472 21.76293945 31.65234375 C22.16931635 45.69258451 21.52984768 57.76472365 11.5859375 68.64453125 C10.73931549 69.21652756 9.89269348 69.78852386 9.02041626 70.37785339 C5.38049045 74.06132043 5.97671011 78.71542644 5.93370056 83.60809326 C5.94673691 84.98132746 5.9602256 86.35455743 5.97412109 87.7277832 C5.97057826 89.1803811 5.96479878 90.632975 5.95695496 92.08555603 C5.94478118 95.21173325 5.94823764 98.33736462 5.96378708 101.46352577 C5.98815805 106.42100424 5.97658307 111.37800783 5.96011353 116.335495 C5.93561231 125.08691007 5.94141162 133.83810903 5.95391846 142.58953857 C5.9724674 155.72222527 5.96742748 168.85486713 5.93388426 181.98752373 C5.9224666 186.89974337 5.92667912 191.81161322 5.94390464 196.7238127 C5.95189589 199.80459474 5.94749212 202.88527873 5.94019508 205.96605873 C5.93939599 207.37678708 5.9435912 208.78753031 5.95363808 210.19822311 C6.04116889 223.13333708 4.96961316 236.64398423 -1.0390625 248.33203125 C-1.38678711 249.03497314 -1.73451172 249.73791504 -2.09277344 250.4621582 C-5.57563185 257.30592839 -9.6775582 263.59415866 -14.4140625 269.64453125 C-15.08695313 270.50473877 -15.08695313 270.50473877 -15.7734375 271.38232422 C-25.51361021 283.64116109 -36.67602035 293.96276341 -50.4140625 301.64453125 C-50.7440625 301.64453125 -51.0740625 301.64453125 -51.4140625 301.64453125 C-51.98940481 254.81055748 -52.52438837 207.9738993 -52.64624023 161.13623047 C-52.65653307 157.32594385 -52.67390063 153.5157933 -52.69750977 149.70556641 C-52.7248541 145.22020768 -52.73721961 140.73505064 -52.73813629 136.2496109 C-52.74078029 134.62080487 -52.74839999 132.99199713 -52.7616806 131.3632431 C-52.90993321 112.1528696 -49.06492138 97.67650548 -35.4140625 83.64453125 C-36.30867188 83.24363281 -37.20328125 82.84273438 -38.125 82.4296875 C-51.64772381 76.16649171 -60.39489028 68.68341688 -66.4140625 54.64453125 C-70.60416223 43.22040284 -69.05354276 30.64790036 -64.4140625 19.64453125 C-58.0900248 7.28463985 -49.2343227 0.02878053 -36.18359375 -4.46875 C-23.83521897 -7.37349723 -11.05221276 -6.20569228 0 0 Z " fill="#83BF09" transform="translate(242.4140625,5.35546875)"/>
<path d="M0 0 C2.30626009 1.43852009 4.44474557 2.97147064 6.5859375 4.64453125 C7.20210938 5.12277344 7.81828125 5.60101563 8.453125 6.09375 C15.14476597 11.99726437 20.96865902 22.64246472 21.76293945 31.65234375 C22.17259252 45.80577575 21.43645695 57.60471024 11.5859375 68.64453125 C10.8434375 69.51078125 10.1009375 70.37703125 9.3359375 71.26953125 C-2.94246088 81.87360258 -16.34735566 84.60087709 -32.08496094 83.86669922 C-42.65305284 82.85863175 -51.65520989 75.8923418 -58.6640625 68.33203125 C-67.08142382 57.88047428 -69.60959206 45.81048968 -68.4140625 32.64453125 C-65.98096242 20.20221106 -59.99643428 8.93418663 -49.4140625 1.64453125 C-34.10976039 -7.37923179 -15.69756975 -8.81400761 0 0 Z " fill="#84C00A" transform="translate(242.4140625,5.35546875)"/>
<path d="M0 0 C2.30626009 1.43852009 4.44474557 2.97147064 6.5859375 4.64453125 C7.20210938 5.12277344 7.81828125 5.60101563 8.453125 6.09375 C15.14476597 11.99726437 20.96865902 22.64246472 21.76293945 31.65234375 C22.17259252 45.80577575 21.43645695 57.60471024 11.5859375 68.64453125 C10.8434375 69.51078125 10.1009375 70.37703125 9.3359375 71.26953125 C-2.94246088 81.87360258 -16.34735566 84.60087709 -32.08496094 83.86669922 C-42.65305284 82.85863175 -51.65520989 75.8923418 -58.6640625 68.33203125 C-67.08142382 57.88047428 -69.60959206 45.81048968 -68.4140625 32.64453125 C-65.98096242 20.20221106 -59.99643428 8.93418663 -49.4140625 1.64453125 C-34.10976039 -7.37923179 -15.69756975 -8.81400761 0 0 Z M-52.42578125 15.93359375 C-58.48301067 23.93370808 -61.1745287 32.71605905 -60.81640625 42.7578125 C-59.21052067 54.27965175 -53.40070922 63.25846178 -44.265625 70.30078125 C-34.8817088 76.48481798 -24.3489153 77.03825694 -13.4140625 75.64453125 C-8.93255469 74.22956733 -5.27817949 72.29674948 -1.4140625 69.64453125 C-0.49947266 69.05285156 -0.49947266 69.05285156 0.43359375 68.44921875 C7.21606385 63.48812809 12.15663057 54.85418673 13.5859375 46.64453125 C14.33129468 37.67263927 14.49777481 29.53066451 9.5859375 21.64453125 C8.9878125 20.61328125 8.3896875 19.58203125 7.7734375 18.51953125 C1.36414697 10.09589227 -5.36491858 5.99424589 -15.4140625 2.64453125 C-30.45708122 1.60296015 -42.04146292 4.11765096 -52.42578125 15.93359375 Z " fill="#FDFEFB" transform="translate(242.4140625,5.35546875)"/>
</svg>
